<svg width="244" height="180" viewBox="0 0 244 180" fill="none" xmlns="http://www.w3.org/2000/svg">
<path d="M215.164 122.148L240.557 124.986C240.557 124.986 246.619 99.9883 231.874 98.078C217.13 96.1676 215.164 122.148 215.164 122.148Z" fill="#373737"/>
<path d="M215.983 123.13L224.557 124.113L238.209 125.641L241.376 125.968H241.431C242.141 123.021 242.523 120.019 242.632 116.963C242.851 111.832 242.359 106.265 239.083 102.062C237.281 99.7151 234.987 97.8593 232.038 97.2044C229.471 96.604 226.796 96.9315 224.447 98.1322C219.969 100.643 217.621 105.937 216.201 110.631C215.546 112.814 215.055 114.998 214.672 117.235C214.399 118.436 214.235 119.692 214.181 120.947C214.181 121.002 214.181 121.056 214.181 121.111C214.126 121.547 214.945 122.202 215.218 122.475C215.328 122.584 216.038 123.239 216.038 123.021C216.42 118.054 217.567 113.196 219.533 108.557C220.898 105.391 222.864 102.226 225.867 100.37C229.089 98.4597 233.021 98.4051 236.298 100.152C236.625 100.315 236.953 100.534 237.281 100.752C237.444 100.861 237.499 100.916 237.608 101.025C237.717 101.134 237.881 101.298 237.717 101.08C237.772 101.134 237.991 101.352 237.772 101.134L237.827 101.189C237.827 101.189 238.1 101.516 237.881 101.298C237.991 101.462 238.045 101.516 238.1 101.625C238.318 101.953 238.537 102.28 238.7 102.662C239.465 104.245 240.011 105.883 240.284 107.575C240.83 111.068 240.885 114.616 240.448 118.109C240.339 119.364 240.12 120.674 239.902 121.929C239.847 122.584 239.683 123.185 239.52 123.84C239.465 123.949 239.629 123.894 239.41 123.894C239.083 123.894 238.755 123.84 238.427 123.785L234.55 123.348L214.618 121.111L214.181 121.056C213.908 121.002 214.563 121.875 214.618 121.929C215 122.311 215.601 123.076 215.983 123.13Z" fill="#373737"/>
<path d="M200.092 93.9297L231.874 98.0778C231.874 98.0778 221.935 98.2415 220.952 114.507C219.97 130.772 217.075 146.327 206.481 145.89C195.887 145.454 185.62 132.082 185.62 132.082L200.092 93.9297Z" fill="white"/>
<path d="M200.255 94.9662L211.013 96.3853L228.106 98.6231L232.038 99.1144L231.328 96.9857C228.98 97.0403 226.522 98.4594 224.884 100.042C222.973 102.007 221.608 104.409 220.843 107.029C219.642 111.013 219.642 115.161 219.259 119.255C218.932 123.403 218.276 127.496 217.348 131.59C216.529 134.81 215.437 138.14 213.525 140.869C211.996 142.943 209.867 144.525 207.3 144.744C204.187 145.017 200.965 143.707 198.289 142.124C193.866 139.449 189.989 135.956 186.821 131.863C186.767 131.808 186.712 131.699 186.603 131.644L186.821 132.681L191.682 119.8L199.436 99.1689L201.238 94.475C201.402 93.8746 201.074 93.2196 200.528 92.9467C200.146 92.7284 199.108 92.5101 198.89 93.1105L196.924 98.3502L192.446 110.249L187.64 122.966L184.692 130.771C184.637 130.935 184.582 131.099 184.473 131.262C184.255 131.808 184.582 132.245 184.91 132.627C186.057 133.991 187.204 135.301 188.46 136.557C192.61 140.759 197.634 144.798 203.477 146.272C206.153 146.927 209.047 147.091 211.614 145.89C213.853 144.744 215.655 142.943 216.857 140.705C218.331 137.976 219.423 135.028 220.078 132.026C220.898 128.479 221.444 124.876 221.771 121.22C222.372 114.997 221.99 108.066 225.922 102.826C226.468 102.116 227.069 101.516 227.778 100.97C228.106 100.697 228.379 100.479 228.761 100.261L229.034 100.097L229.089 100.042C229.253 99.9876 229.362 99.8785 229.526 99.8239C230.072 99.551 230.618 99.3327 231.164 99.1689L231.492 99.0598C231.273 99.1144 231.383 99.0598 231.601 99.0598C231.82 99.0598 231.929 99.0052 232.093 99.0052C232.202 99.0052 232.366 98.9506 232.475 98.9506C232.912 98.9506 233.239 98.5685 233.239 98.1865C233.239 98.0773 233.239 98.0227 233.185 97.9136C232.966 97.3132 232.42 96.8765 231.765 96.822L221.007 95.4029L203.914 93.1651L199.982 92.6738C199.436 92.6193 198.835 92.9467 198.89 93.6017C198.999 94.4204 199.6 94.9116 200.255 94.9662Z" fill="#373737"/>
<path d="M208.119 13.696C208.119 13.696 222.209 12.7135 218.987 27.614C215.765 42.5145 198.126 114.452 198.126 129.516C198.126 144.58 206.481 145.89 206.481 145.89C206.481 145.89 139.311 143.489 124.184 139.231C109.058 134.974 130.355 59.8712 130.355 59.8712C130.355 59.8712 192.665 15.5517 195.286 15.5517C197.907 15.5517 208.119 13.696 208.119 13.696Z" fill="#373737"/>
<path d="M208.774 14.8416C209.593 14.7871 210.358 14.8416 211.177 14.9508C212.815 15.1145 214.345 15.6603 215.764 16.4791C215.983 16.5882 216.147 16.752 216.365 16.9157C216.583 17.0794 216.365 16.9157 216.474 17.0249L216.747 17.2978L217.02 17.5707C216.857 17.4069 217.02 17.5707 217.075 17.6798L217.293 17.9527C217.403 18.1165 217.184 17.789 217.403 18.0619C217.457 18.1711 217.566 18.2802 217.621 18.444C217.457 18.2256 217.621 18.444 217.676 18.5531L217.84 18.8806C217.73 18.6623 217.894 19.0443 217.949 19.0989C218.167 19.6447 218.331 20.1905 218.386 20.7363C218.822 23.1925 218.276 25.6486 217.785 28.0502C216.966 31.7616 216.092 35.4731 215.218 39.2392C213.962 44.5881 212.706 49.937 211.505 55.2859C210.085 61.4535 208.665 67.6757 207.245 73.8979C205.825 80.2292 204.46 86.5606 203.095 92.892C201.894 98.6229 200.747 104.354 199.655 110.139C198.835 114.56 198.071 119.036 197.525 123.512C196.979 128.369 196.924 133.391 198.562 138.085C199.818 141.687 202.44 145.617 206.317 146.818C206.535 146.872 206.754 146.927 207.027 146.981L205.771 144.634C204.078 144.58 202.385 144.525 200.692 144.416C196.323 144.252 191.955 144.034 187.586 143.816C181.688 143.543 175.79 143.27 169.947 142.888C163.667 142.506 157.387 142.069 151.107 141.578C145.537 141.141 139.912 140.595 134.342 139.886C132.157 139.613 130.027 139.286 127.843 138.903C126.314 138.685 124.84 138.358 123.365 137.866C123.256 137.812 123.092 137.757 122.983 137.703L122.819 137.648C122.71 137.593 122.983 137.757 122.764 137.648L122.546 137.484C122.218 137.266 122.655 137.593 122.382 137.375L122.054 137.102C122 137.102 122.273 137.375 122.109 137.157L121.945 136.939C121.891 136.884 121.836 136.829 121.836 136.775C121.836 136.72 122.054 137.102 121.891 136.829L121.618 136.393C121.508 136.229 121.781 136.72 121.618 136.447C121.563 136.393 121.563 136.338 121.508 136.229C121.399 136.065 121.345 135.901 121.29 135.738C121.181 135.465 121.399 135.956 121.29 135.738C121.235 135.683 121.235 135.574 121.181 135.465C121.126 135.301 121.071 135.137 120.962 134.919C120.853 134.701 120.853 134.592 120.798 134.373C120.744 134.155 120.744 134.1 120.798 134.319L120.689 133.991C120.58 133.609 120.471 133.172 120.416 132.79C120.034 130.935 119.815 129.079 119.761 127.223C119.652 124.931 119.706 122.638 119.815 120.346C120.143 114.997 120.689 109.648 121.563 104.354C122.437 98.8412 123.474 93.3286 124.621 87.8705C125.659 83.0129 126.751 78.1552 127.952 73.3521C128.771 70.0773 129.591 66.7478 130.464 63.473L131.12 61.126C131.174 61.0169 131.174 60.8531 131.229 60.744C131.174 60.9623 131.174 60.8531 131.338 60.744C133.086 59.6523 134.778 58.2878 136.471 57.0871C139.912 54.6309 143.407 52.1748 146.847 49.7733C151.325 46.6622 155.749 43.4965 160.226 40.3854C164.868 37.1651 169.51 33.9449 174.152 30.7792C178.193 27.9956 182.234 25.2665 186.275 22.5375C188.896 20.7909 191.518 18.9898 194.303 17.4069C194.63 17.1886 195.013 17.0249 195.395 16.8065L195.777 16.6428C195.832 16.6428 195.886 16.5882 195.886 16.5882C195.723 16.5882 195.996 16.5336 195.886 16.5882C198.289 16.4245 200.692 16.0424 203.04 15.6603C204.952 15.3329 206.918 15.0054 208.829 14.6779C209.648 14.5142 208.337 12.2218 207.573 12.3309C205.498 12.713 203.423 13.0405 201.347 13.368C199.873 13.5863 198.344 13.8046 196.869 14.0229C196.105 14.1321 195.34 14.0775 194.576 14.1867C193.921 14.405 193.265 14.6779 192.665 15.1145C191.518 15.7695 190.371 16.5336 189.224 17.2432C185.675 19.5356 182.179 21.8825 178.684 24.2295C174.152 27.286 169.674 30.3971 165.141 33.5082C160.445 36.7285 155.803 40.0033 151.161 43.2782C147.12 46.1163 143.024 48.9545 138.983 51.8473L131.174 57.36C130.628 57.6874 130.137 58.0695 129.645 58.4516C129.481 58.6699 129.317 58.9428 129.317 59.2157C128.662 61.5627 128.061 63.9096 127.461 66.2566C126.369 70.5685 125.331 74.8803 124.348 79.1922C123.147 84.5957 122 89.9992 121.017 95.4027C119.979 100.97 119.106 106.537 118.559 112.159C117.959 116.962 117.795 121.765 118.068 126.568C118.286 130.116 118.832 133.991 120.908 136.993C121.727 138.303 122.874 139.286 124.239 139.94C125.768 140.432 127.297 140.814 128.881 141.032C133.577 141.905 138.383 142.397 143.134 142.888C149.25 143.488 155.366 143.979 161.482 144.416C167.763 144.853 174.097 145.235 180.377 145.562C185.675 145.835 190.972 146.108 196.269 146.381C199.436 146.545 202.658 146.654 205.825 146.763L207.136 146.818C207.682 146.818 207.245 145.835 207.136 145.671C206.863 145.18 206.481 144.58 205.88 144.471C205.716 144.471 205.825 144.471 205.88 144.471C205.716 144.416 205.607 144.416 205.443 144.362C205.279 144.307 205.006 144.198 204.788 144.089C204.679 144.034 204.515 143.979 204.406 143.925C204.351 143.87 204.296 143.87 204.187 143.816L204.133 143.761C203.805 143.543 203.532 143.379 203.204 143.161C202.877 142.942 203.259 143.215 203.095 143.106C202.931 142.997 202.931 142.997 202.877 142.888C202.713 142.724 202.549 142.56 202.385 142.397C202.221 142.233 202.385 142.397 202.44 142.451L202.33 142.287C202.276 142.178 202.167 142.124 202.112 142.015C202.057 141.905 201.948 141.851 201.894 141.742C201.839 141.632 201.73 141.523 201.894 141.796C201.839 141.742 201.784 141.687 201.784 141.632C201.62 141.414 201.457 141.141 201.293 140.923C201.184 140.814 201.293 140.978 201.347 140.978C201.293 140.923 201.238 140.814 201.238 140.759L201.02 140.323C199.545 137.484 199.108 133.718 199.054 130.334C199.054 128.861 199.163 127.442 199.327 125.968C199.764 121.656 200.528 117.399 201.293 113.196C202.33 107.465 203.477 101.789 204.679 96.1122C205.989 89.7809 207.354 83.4495 208.774 77.1727C210.14 70.9505 211.559 64.6738 213.034 58.4516C214.29 53.0481 215.546 47.59 216.802 42.1865C217.676 38.3113 218.604 34.4361 219.478 30.5609C219.969 28.3231 220.515 26.0852 220.461 23.7929C220.461 21.0092 219.423 18.2802 217.621 16.2062C215.273 13.5863 211.778 12.3855 208.283 12.3309C208.064 12.3309 207.846 12.3309 207.628 12.3309C206.754 12.6038 207.955 14.8962 208.774 14.8416Z" fill="#373737"/>
<path d="M208.119 13.6961C208.119 13.6961 131.557 7.25563 127.843 10.4759C124.13 13.6961 117.413 42.8968 112.607 70.8967C107.802 98.8965 101.139 107.52 101.139 107.52C101.139 107.52 161.865 116.308 177.265 112.542C192.665 108.776 194.085 67.3489 194.085 47.8636C194.085 28.3783 200.474 16.6435 208.119 13.6961Z" fill="white"/>
<path d="M208.065 12.386C206.044 12.2222 204.023 12.0585 202.003 11.8948C196.924 11.5127 191.9 11.1306 186.821 10.7486C180.268 10.2573 173.715 9.82069 167.162 9.43863C160.663 9.05656 154.22 8.72908 147.721 8.45617C142.752 8.29243 137.727 8.12869 132.758 8.29243C131.338 8.29243 129.973 8.45617 128.608 8.6745C128.171 8.72908 127.734 8.89282 127.297 9.11114C126.696 9.54779 126.15 10.1482 125.823 10.8577C124.348 13.3139 123.529 16.2066 122.655 18.9357C121.29 23.2475 120.198 27.6686 119.106 32.035C116.321 43.6061 114.027 55.2864 112.006 66.9666C110.313 76.7366 108.457 86.5611 105.071 95.949C103.815 99.4967 102.34 103.044 100.32 106.265C100.101 106.592 100.484 106.046 100.32 106.319L100.265 106.374C99.7738 107.083 99.9923 108.011 100.702 108.502C100.866 108.612 101.03 108.666 101.194 108.721C103.378 109.048 105.562 109.321 107.747 109.594C113.099 110.304 118.505 110.959 123.857 111.559C130.683 112.323 137.564 113.033 144.444 113.579C151.052 114.124 157.66 114.561 164.268 114.616C166.889 114.67 169.565 114.616 172.186 114.452C174.152 114.397 176.173 114.07 178.084 113.579C183.272 112.05 186.33 107.029 188.296 102.335C191.026 95.7852 192.392 88.6351 193.32 81.5942C194.248 74.0621 194.849 66.4754 195.013 58.8341C195.286 50.8653 194.794 42.7874 196.323 34.9278C197.579 28.269 200.092 20.846 205.662 16.5887C206.59 15.8791 207.628 15.3333 208.72 14.8967C210.03 14.4055 208.829 11.9493 207.464 12.4951C201.566 14.7875 198.016 21.0097 195.996 26.6861C194.521 31.0526 193.593 35.5828 193.211 40.1675C192.828 44.2611 192.883 48.3546 192.828 52.4482C192.719 59.5982 192.446 66.7483 191.791 73.8438C191.081 81.2122 190.098 88.6897 187.968 95.8398C187.149 98.7872 186.002 101.625 184.528 104.354C183.927 105.446 183.217 106.483 182.453 107.465C182.07 107.957 181.633 108.393 181.197 108.83C180.978 109.048 180.76 109.212 180.541 109.43L180.214 109.703L180.05 109.812L179.995 109.867C178.193 111.122 176.664 111.504 174.534 111.777C172.241 112.05 169.947 112.214 167.653 112.269C161.428 112.378 155.312 112.05 149.086 111.614C142.151 111.122 135.27 110.467 128.389 109.703C122.491 109.048 116.648 108.393 110.805 107.629C107.692 107.247 104.579 106.811 101.467 106.374L101.03 106.319L101.904 108.666C103.433 106.701 104.47 104.245 105.453 102.007C108.675 94.4207 110.75 86.3428 112.389 78.3194C113.59 72.261 114.573 66.2025 115.72 60.1441C116.812 54.1948 118.013 48.2455 119.324 42.3508C120.416 37.2748 121.618 32.1988 122.928 27.1228C123.857 23.4659 124.949 19.8635 126.259 16.2612C126.696 15.115 127.188 13.9688 127.734 12.8772C127.843 12.7135 127.952 12.4951 128.062 12.3314C128.171 12.1677 128.171 12.1677 128.116 12.2768L128.335 12.0039C128.444 11.8948 128.553 11.7856 128.608 11.6764C128.771 11.4581 128.335 11.7856 128.553 11.6764C128.717 11.6219 128.826 11.5673 128.99 11.5127C128.553 11.6764 128.881 11.5127 129.045 11.5127L129.372 11.4581C129.973 11.3489 130.574 11.2944 131.174 11.2398C132.976 11.076 134.779 11.0215 136.635 11.0215C137.837 11.0215 138.983 11.0215 140.185 11.0215H142.096L144.008 11.076C150.233 11.2398 156.459 11.5673 162.684 11.8948C169.292 12.2768 175.954 12.6589 182.562 13.1501C188.077 13.5322 193.593 13.9142 199.163 14.3509C202.057 14.5692 204.952 14.7875 207.791 15.0604L208.174 15.115C209.812 15.115 209.43 12.4951 208.065 12.386Z" fill="#373737"/>
<path d="M162.52 92.0188L90.8724 86.1787C90.8724 86.1787 87.3774 102.444 101.139 107.465C114.901 112.487 170.165 113.414 170.165 113.414C170.165 113.414 156.731 108.12 162.52 92.0188Z" fill="white"/>
<path d="M162.848 91.4185L155.694 90.8181L138.601 89.399L117.85 87.707L99.9923 86.2334C97.098 86.015 94.2037 85.7421 91.3094 85.5238H91.2001C90.7087 85.4692 89.6165 85.5238 89.5072 86.1788C89.1796 87.7616 89.0704 89.399 89.125 91.0365C89.125 94.475 89.9441 97.859 91.5824 100.861C93.6576 104.463 97.098 106.865 100.975 108.175C103.706 108.993 106.545 109.648 109.385 110.031C117.303 111.286 125.331 111.941 133.304 112.487C141.277 113.032 149.25 113.415 157.223 113.687C161.483 113.851 165.742 114.069 170.002 114.015H170.166C170.602 114.069 171.039 113.906 171.422 113.578C171.64 113.305 171.422 113.032 171.094 112.923L170.766 112.76C170.657 112.705 170.493 112.65 170.384 112.596L170.166 112.487C170.439 112.65 170.111 112.432 170.002 112.377C168.964 111.777 167.981 111.122 167.107 110.303C164.432 107.902 162.793 104.627 162.466 101.079C162.247 98.0228 162.684 94.9663 163.776 92.0735C164.104 91.2002 161.428 91.0365 161.155 91.8552C159.462 96.5491 158.916 101.789 161.264 106.428C162.684 109.103 164.814 111.34 167.435 112.869C168.036 113.251 168.636 113.524 169.292 113.797L170.22 112.705L167.49 112.65L165.961 112.596H165.141H164.759H164.486C164.158 112.596 164.814 112.596 164.486 112.596L160.336 112.487C152.745 112.214 145.1 111.941 137.509 111.45C129.481 110.958 121.399 110.358 113.426 109.266C111.679 109.048 110.477 108.83 108.784 108.557C107.419 108.284 105.999 108.011 104.634 107.684C104.361 107.629 104.033 107.52 103.76 107.465L103.323 107.356C103.269 107.356 102.723 107.192 103.05 107.301C102.34 107.083 101.631 106.81 100.921 106.483C98.9547 105.609 97.2072 104.354 95.7873 102.771C92.0193 98.4048 91.2001 92.0189 92.1285 86.4517L92.1831 86.1242L90.4902 86.7792L97.6441 87.3796L114.737 88.7987L135.488 90.4906L153.346 91.9643C156.24 92.1827 159.134 92.4555 162.029 92.6739H162.138C162.575 92.7285 163.558 92.6739 163.776 92.1826C163.995 91.6914 163.175 91.4731 162.848 91.4185Z" fill="#373737"/>
<path d="M123.256 80.3388L124.294 75.1536C125.113 71.1692 125.877 67.1848 126.696 63.2004C127.57 58.7794 128.499 54.3584 129.372 49.9373C129.973 46.99 130.574 43.988 131.229 41.0407L131.447 40.1128C131.447 39.8945 131.447 40.0582 131.447 40.1128C131.447 40.4403 131.502 39.8399 131.393 40.1674C131.393 40.1128 131.502 40.0582 131.502 40.0582C131.338 40.1128 131.447 40.0582 131.557 40.0582C131.666 40.0582 131.72 40.0037 131.775 40.0037C131.83 40.0037 131.884 39.9491 131.939 39.9491C133.796 39.6762 135.816 40.1128 137.673 40.4949L138.11 40.604L136.745 38.912L134.178 52.6118L130.082 74.3895L129.154 79.3563L129.809 78.7559H121.563C120.908 78.7559 120.799 79.4655 121.017 79.9567C121.29 80.6117 121.836 81.0483 122.546 81.1029H130.792C131.12 81.1029 131.447 80.83 131.447 80.5025L134.014 66.8028L138.11 45.0251L139.038 40.0582C139.147 39.3487 138.328 38.53 137.673 38.3662C135.98 37.9842 134.287 37.7113 132.54 37.6567C131.611 37.6021 130.519 37.6021 129.755 38.0933C129.372 38.3662 129.099 38.8029 129.099 39.2941C128.553 41.8048 128.062 44.3155 127.516 46.8808C126.642 51.2473 125.768 55.6137 124.84 59.9802C123.966 64.1829 123.147 68.4402 122.273 72.6975C122 74.1711 121.672 75.6448 121.399 77.1185C121.235 77.828 121.072 78.5376 120.962 79.3017C120.962 79.3563 120.962 79.3563 120.962 79.4109C120.744 80.3388 122.983 81.7579 123.256 80.3388Z" fill="#808EFF"/>
<path d="M142.752 82.0305C143.243 79.7382 143.735 77.3912 144.171 75.0988C145.264 69.8045 146.356 64.5102 147.503 59.2158C148.759 53.3757 149.96 47.5356 151.216 41.6955C152.035 37.7656 152.854 33.8358 153.728 29.9606C153.837 29.5786 153.892 29.1965 154.001 28.8144C154.001 28.7053 154.056 28.5961 154.11 28.4869C154.165 28.3778 154.329 28.2686 154.438 28.214C154.547 28.1595 154.711 28.1049 154.82 28.1049H155.039H155.257C155.312 28.1049 155.803 28.1049 155.53 28.1049C155.749 28.1049 155.967 28.1049 156.186 28.1049C156.896 28.1595 157.442 28.214 158.206 28.2686C159.462 28.4324 160.445 28.5961 161.592 28.8144L162.193 28.9236L161.81 28.7053L160.773 33.9996L158.261 46.7715L155.203 62.2724L152.581 75.59L151.708 80.0111C151.544 80.7206 151.38 81.3756 151.271 82.0851C151.271 82.1397 151.271 82.1397 151.271 82.1943L152.636 81.8122H141.332C141.113 81.8122 139.967 81.8668 139.967 82.1943C139.967 82.5218 141.168 82.5218 141.332 82.5218H152.636C152.909 82.5218 153.892 82.5218 154.001 82.1397L155.039 76.8454L157.551 64.0735L160.609 48.5726L163.23 35.2549L164.104 30.8339L164.377 29.4694C164.432 29.2511 164.486 28.9782 164.541 28.7598C164.541 28.7053 164.541 28.7053 164.541 28.6507C164.541 28.5415 164.159 28.4324 164.159 28.4324C161.81 27.9411 159.462 27.6136 157.114 27.4499C155.585 27.3953 153.892 27.3407 152.418 27.8866C151.871 28.0503 151.435 28.4869 151.325 29.0327C150.561 32.253 149.905 35.5278 149.196 38.8027C147.94 44.5882 146.738 50.4284 145.537 56.2139C144.335 61.8903 143.134 67.6213 141.932 73.2976C141.496 75.2625 141.113 77.2275 140.676 79.2469L140.294 81.1027C140.185 81.4302 140.13 81.7576 140.076 82.0851C140.076 82.1397 140.076 82.1943 140.076 82.1943C139.967 82.4126 142.642 82.6855 142.752 82.0305Z" fill="#808EFF"/>
<path d="M159.517 83.3954C159.517 83.3954 165.032 59.8166 165.524 58.2338C166.015 56.6509 174.534 58.2338 174.534 58.2338L169.237 83.3954H159.517Z" fill="#808EFF"/>
<path d="M160.827 83.8325C161.81 79.5206 162.848 75.2633 163.831 70.9514C164.541 68.0587 165.196 65.1659 165.906 62.2731C166.124 61.3452 166.343 60.4174 166.616 59.4895C166.671 59.2712 166.725 58.9983 166.834 58.78C166.944 58.5616 166.998 58.4525 167.271 58.3979C168.582 58.0704 170.275 58.2887 171.749 58.4525C172.623 58.5616 172.896 58.6162 173.77 58.7254C174.097 58.78 174.425 58.8345 174.753 58.8891L173.278 57.8521L171.476 66.3667L168.637 79.8481L167.981 83.0138L168.473 82.7954H158.752C158.206 82.7954 158.152 83.2321 158.534 83.5596C159.08 83.9416 159.735 84.16 160.39 84.16H170.056C170.166 84.16 170.493 84.1054 170.548 83.9416L172.35 75.4271L175.19 61.8911L175.845 58.7254C175.954 58.125 174.698 57.7429 174.371 57.6883C171.804 57.1425 169.183 56.8696 166.561 56.9788C165.742 57.0334 164.486 57.1425 164.159 58.0704C163.94 58.78 163.776 59.4895 163.612 60.1991C162.193 66.0938 160.827 71.9339 159.462 77.8286C159.08 79.5752 158.643 81.3218 158.261 83.0683C158.042 83.7779 160.664 84.542 160.827 83.8325Z" fill="#808EFF"/>
<path d="M145.318 82.4675L150.725 79.7384C152.254 78.9743 154.056 78.3193 155.039 76.8457C155.366 76.2453 155.203 75.4812 154.656 75.0991C154.165 74.717 153.291 74.5533 152.909 75.1537C152.472 75.7541 151.871 76.1907 151.216 76.5182C150.451 76.9548 149.632 77.3369 148.813 77.719L143.571 80.3934C142.97 80.7209 143.079 81.6488 143.461 82.0854C143.953 82.6312 144.717 82.795 145.318 82.4675Z" fill="#808EFF"/>
<path d="M144.062 76.1364L156.459 67.7855C156.732 67.6218 155.585 67.458 155.53 67.458C155.093 67.4035 154.22 67.2397 153.837 67.5126L141.441 75.8089C141.168 75.9726 142.315 76.1364 142.369 76.1364C142.806 76.1909 143.68 76.3547 144.062 76.1364Z" fill="#808EFF"/>
<path d="M146.41 66.0385C150.67 63.5823 154.711 60.7987 158.588 57.7968C159.626 56.9781 157.168 55.9956 156.459 56.5414C152.581 59.5434 148.54 62.327 144.281 64.7831C143.734 65.1106 144.171 65.6564 144.554 65.8747C145.1 66.2568 145.81 66.3114 146.41 66.0385Z" fill="#808EFF"/>
<path d="M147.776 55.8863C149.851 54.6856 151.926 53.4848 153.892 52.1748C154.929 51.5199 155.912 50.8649 156.895 50.1554C157.824 49.555 158.698 48.7908 159.407 47.9175C159.79 47.4263 159.08 47.208 158.698 47.208C158.042 47.208 157.387 47.4263 156.95 47.9175C156.24 48.6817 155.476 49.3366 154.602 49.8825C153.728 50.4828 152.8 51.0832 151.926 51.6836C150.015 52.8844 148.103 54.0852 146.137 55.1768C145.81 55.3951 145.318 55.8317 145.864 56.1046C146.41 56.3775 147.284 56.1592 147.776 55.8863Z" fill="#808EFF"/>
<path d="M150.943 46.3897L161.046 39.9492C161.537 39.6763 161.592 39.1851 161.1 38.8576C160.5 38.5301 159.79 38.4755 159.189 38.803L149.086 45.2435C148.595 45.5164 148.54 46.0077 149.032 46.3352C149.632 46.6626 150.342 46.6626 150.943 46.3897Z" fill="#808EFF"/>
<path d="M151.817 38.0392L163.121 31.1621C163.503 30.9437 162.684 30.3979 162.52 30.2888C162.247 30.0705 161.319 29.5246 160.882 29.743L149.578 36.6201C149.195 36.8384 150.014 37.3843 150.178 37.4934C150.506 37.6572 151.434 38.2575 151.817 38.0392Z" fill="#808EFF"/>
<path d="M51.8812 20.5732C51.8812 20.5732 59.2535 29.3061 67.445 29.197C75.6364 29.0878 91.4185 26.4134 93.0568 34.5459C94.6951 42.6784 83.7186 45.3529 76.7832 43.9338C76.7832 43.9338 78.3123 65.3294 65.6429 70.9512C52.9734 76.573 47.1302 72.9707 46.1472 81.649C46.1472 81.649 30.3105 96.3858 28.9452 79.957C28.7268 77.3917 23.0474 45.6803 42.543 35.8558C42.4884 35.8558 53.6288 30.9981 51.8812 20.5732Z" fill="white"/>
<path d="M50.7345 21.3376C53.1373 24.1212 55.977 26.4682 59.2536 28.1602C61.6564 29.4701 64.3868 30.1797 67.1173 30.1797C69.3563 30.1251 71.6499 29.9613 73.8889 29.8522C76.3463 29.6884 78.8038 29.6339 81.2612 29.743C83.4456 29.743 85.63 30.1251 87.7051 30.8892C89.398 31.5442 90.8725 32.6358 91.5278 34.3824C92.2377 36.2381 91.9647 38.2576 90.8725 39.895C90.2718 40.6591 89.5072 41.3141 88.6335 41.7508C87.5413 42.2966 86.3945 42.6786 85.2477 42.9515C82.681 43.4973 80.0598 43.5519 77.5477 43.0061C76.8378 42.8424 75.4726 43.6611 75.5272 44.4798C75.6364 46.2264 75.6364 47.9729 75.4726 49.7195C75.3088 53.431 74.5442 57.1425 73.3428 60.6357C72.6875 62.4914 71.8137 64.238 70.6669 65.8208C69.5748 67.4037 68.1549 68.7136 66.462 69.696C66.2436 69.8052 65.6429 70.1327 65.206 70.2964C64.4415 70.6239 63.6223 70.9514 62.8578 71.2789C61.4925 71.7701 60.1273 72.2068 58.7621 72.5888C56.6323 73.1892 54.5025 73.5713 52.3728 74.1171C50.516 74.5537 48.6593 75.2087 47.2395 76.5186C45.6558 77.9923 45.0551 79.9572 44.782 82.0313L45.2735 81.3217C44.9459 81.6492 44.5636 81.9767 44.1813 82.2496C43.7991 82.5225 43.3622 82.9046 42.9799 83.232C42.6523 83.4504 43.1437 83.1229 42.8161 83.3412L42.4338 83.6141C42.1608 83.8324 41.8877 83.9962 41.6147 84.1599C41.014 84.542 40.4133 84.924 39.758 85.3061C39.4849 85.4698 39.7033 85.3607 39.758 85.3061L39.5941 85.4153C39.4303 85.4698 39.2665 85.579 39.1026 85.6336C38.775 85.7973 38.4473 85.9611 38.0651 86.1248L37.6282 86.2886C37.9012 86.1794 37.4097 86.3431 37.3551 86.3977C37.0275 86.5069 36.6452 86.616 36.3176 86.6706C36.2629 86.6706 36.1537 86.7252 36.0991 86.7252L35.6076 86.7798C35.3346 86.7798 35.0615 86.7798 34.7885 86.7798C33.5871 86.7252 32.4949 86.1794 31.7304 85.2515C30.5289 83.7778 30.1467 81.7584 29.9829 79.9572C29.819 78.3744 29.6006 76.7915 29.4368 75.2087C28.7814 68.7136 28.7814 62.0548 30.0375 55.6142C30.7474 51.8482 32.058 48.2458 33.9147 44.9164C35.7715 41.6416 38.5019 38.9126 41.7785 37.0568C42.3246 36.7293 43.1984 36.3473 43.8537 35.9652C45.0551 35.2557 46.2019 34.4915 47.2941 33.5637C50.3522 31.0529 52.6458 27.6144 53.0827 23.5754C53.1919 22.4292 53.1373 21.2284 52.9735 20.0822C52.8096 19.0452 50.4068 20.246 50.5706 21.1738C51.1167 24.3395 50.2976 27.6144 48.3863 30.2342C47.021 32.0354 45.3281 33.5091 43.3622 34.6007C43.1984 34.7098 42.7615 34.9282 43.1437 34.7098L42.7615 34.9282C42.5977 34.9828 42.4338 35.0919 42.3246 35.1465C41.0686 35.8015 39.8126 36.511 38.6658 37.3843C36.0445 39.3492 33.8055 41.7507 32.1126 44.5344C28.8907 49.6649 27.4708 55.6688 26.8701 61.6727C26.4332 66.5849 26.4878 71.4972 27.0339 76.4095C27.1432 77.6648 27.3616 78.9202 27.4708 80.1755C27.7439 82.5225 28.0169 85.1969 29.7644 87.0527C33.1502 90.655 38.8296 87.6531 42.1608 85.5244C43.5806 84.5966 45.0005 83.5049 46.3111 82.3587L46.6388 82.0858C47.0756 81.6492 47.2941 81.0488 47.2941 80.4484C47.4033 79.7935 47.5671 79.1385 47.7856 78.4835C47.8402 78.3198 47.9494 78.1015 48.0586 77.9377C48.1132 77.8286 48.1678 77.7194 48.277 77.6102C48.3863 77.4465 48.3863 77.5011 48.277 77.6102C48.3317 77.5557 48.3863 77.5011 48.4409 77.4465L48.6593 77.2282C48.8231 77.0644 48.6593 77.2282 48.6047 77.2827C48.6593 77.2282 48.7139 77.1736 48.7139 77.1736L48.987 76.9553C48.7685 77.1736 48.9324 77.0098 49.0962 76.9007C49.26 76.7915 49.5331 76.6824 49.2054 76.8461L49.5331 76.6824C49.6423 76.6278 49.7515 76.5732 49.9153 76.5186L50.0792 76.464C50.4068 76.3549 49.8061 76.5732 50.1884 76.4095C51.3898 76.0274 52.6458 75.6999 53.9018 75.427C57.8337 74.6083 61.711 73.4075 65.4244 71.8793C71.4315 69.2594 74.8719 63.583 76.5648 57.47C77.7116 53.1581 78.2031 48.6825 78.0392 44.2069C78.0392 43.934 78.0392 43.7157 77.9846 43.4427L75.9641 44.9164C80.7697 45.8989 86.5583 45.1348 90.5994 42.242C92.5108 40.8229 94.0398 38.9126 94.3129 36.4564C94.5859 34.3278 93.876 32.1991 92.3469 30.7255C90.8179 29.3609 88.7427 28.706 86.7768 28.3239C84.2647 27.8873 81.6981 27.7235 79.1314 27.8327C76.6194 27.8873 74.1073 28.051 71.5407 28.1602C68.9741 28.2693 66.5166 28.4331 64.0592 27.6689C61.1649 26.6319 58.5436 25.0491 56.25 23.0296C55.1032 22.0471 54.011 21.0101 53.0281 19.8639C52.3728 19.0998 50.1338 20.628 50.7345 21.3376Z" fill="#373737"/>
<path d="M21.7368 62.764C21.7368 62.764 11.4156 67.8946 8.41206 62.3819C5.40853 56.8693 12.7262 56.7601 12.7262 56.7601C12.7262 56.7601 2.07735 46.3352 12.7808 41.805C12.7808 41.805 1.58587 34.6004 7.15604 24.4484C12.7262 14.2964 28.3445 16.8617 28.3445 16.8617C28.3445 16.8617 25.2318 3.7623 36.9182 3.05275C48.6047 2.3432 47.5125 10.8578 47.5125 10.8578C47.5125 10.8578 54.994 10.312 56.1408 14.7876C57.2876 19.2632 52.2089 22.2106 52.2089 22.2106C52.2089 22.2106 52.8642 35.6374 42.543 35.8011L36.3721 54.0857C36.3721 54.0857 40.9593 59.3254 38.5565 66.2026C36.1537 73.0797 22.9382 71.2786 21.7368 62.764Z" fill="#373737"/>
<path d="M21.0268 61.5635C18.5148 62.8189 15.5113 63.8013 12.617 63.6922C11.6886 63.6922 10.8149 63.4738 9.99571 63.0918C9.72267 62.928 9.44962 62.7643 9.17657 62.4914C9.28579 62.6006 9.01274 62.2731 9.01274 62.2731C9.17657 62.4914 8.90352 62.1093 8.90352 62.1093C8.7943 61.9456 8.73969 61.7273 8.63048 61.5635C8.13899 60.199 8.95813 59.0528 10.2688 58.507C11.1971 58.1249 12.2347 57.9066 13.2177 57.9066C14.0914 57.9066 12.9446 56.0509 12.7262 55.8326C12.617 55.778 12.5624 55.6688 12.4531 55.5597L12.1801 55.2322C12.0163 55.0138 12.2347 55.2868 12.1801 55.2322C12.1255 55.1776 12.0709 55.0684 11.9617 55.0138C11.634 54.6318 11.3609 54.2497 11.0333 53.8677C10.9787 53.7585 10.8695 53.6493 10.8149 53.5402C10.7602 53.431 10.5964 53.2127 10.7056 53.431C10.5418 53.1581 10.378 52.9398 10.2141 52.6669C9.88649 52.2302 9.66806 51.739 9.44962 51.1932C9.23118 50.702 9.06735 50.2107 8.95813 49.7195C8.68508 48.5733 8.73969 47.3726 9.23118 46.3355C10.0503 44.5889 11.7432 43.5519 13.4361 42.8424C13.7638 42.7332 13.4907 42.0237 13.4361 41.8599C13.2723 41.3687 12.9446 40.9866 12.5624 40.6591C12.1255 40.3862 11.6886 40.0587 11.3063 39.7313C11.2517 39.7313 11.0333 39.5129 11.1425 39.5675C11.2517 39.6221 10.9787 39.4038 10.9241 39.3492C10.7056 39.1309 10.4872 38.9126 10.2688 38.6942C10.0503 38.4759 9.83188 38.203 9.61345 37.9847C9.39501 37.7664 9.3404 37.6572 9.01274 37.3297C8.08438 36.2381 7.37445 34.9827 6.93758 33.6182C6.44609 31.9262 6.39148 30.1251 6.82836 28.4331C7.81133 24.667 10.4326 21.5559 13.9276 19.9185C16.9311 18.554 20.1531 17.7898 23.4843 17.7353C25.341 17.6261 27.1431 17.7353 28.9998 18.0082C29.3275 18.0627 29.3275 17.6261 29.2729 17.4078C29.1637 17.0803 29.1637 16.6982 29.109 16.3707C28.9998 15.552 28.9452 14.7879 28.9452 13.9692C28.9452 11.6768 29.3821 9.27525 30.8019 7.41951C32.8225 4.69048 36.3721 4.09009 39.5395 4.19925C41.2324 4.19925 42.9253 4.58132 44.4543 5.34545C44.8912 5.56377 45.2735 5.89125 45.6557 6.21874C45.7103 6.27332 45.7649 6.3279 45.7649 6.38248C45.8742 6.49164 45.6557 6.21874 45.7649 6.3279C45.8742 6.43706 45.9288 6.54622 45.9834 6.6008C46.2018 6.8737 45.8742 6.38248 46.038 6.65538C46.0926 6.76454 46.1472 6.87371 46.2564 6.98287C46.038 6.6008 46.2564 7.03745 46.311 7.14661C46.3657 7.25577 46.4749 7.58325 46.4203 7.36493C46.3657 7.14661 46.4749 7.52867 46.4749 7.58325C46.4749 7.63783 46.5295 7.80158 46.5841 7.91074C46.6387 8.12906 46.5295 7.747 46.5841 8.0199L46.6387 8.34738C46.6387 8.51113 46.6933 8.72945 46.6933 8.89319C46.6933 8.94777 46.6933 9.27525 46.6933 9.00235C46.6933 9.05693 46.6933 9.16609 46.6933 9.22067C46.6933 9.27525 46.6933 9.49357 46.6933 9.60274C46.6933 9.7119 46.6933 9.82106 46.6933 9.93022C46.6387 10.5306 47.4032 12.0589 48.1132 12.0043C50.0245 11.8405 51.9358 12.1134 53.7379 12.8776C54.011 12.9867 54.284 13.1505 54.5025 13.3142C54.6117 13.4234 54.7209 13.478 54.8847 13.5871C54.8847 13.5871 55.1578 13.86 55.0486 13.7509C55.1032 13.8054 55.1578 13.86 55.2124 13.9692C55.2124 13.9692 55.1032 13.8054 55.2124 13.9146C55.2124 13.9692 55.3762 14.1875 55.3216 14.0238C55.267 13.86 55.3762 14.1875 55.3216 14.0784C55.4308 14.4058 55.4854 14.7333 55.5401 15.1154C55.5401 16.6436 54.8847 18.1719 53.7925 19.2635C53.1372 19.9731 52.3727 20.5734 51.5536 21.0647C51.4443 21.1193 51.3897 21.2284 51.3897 21.3922C51.5536 25.322 50.516 30.2888 47.2394 32.8541C45.7103 34.0003 43.9082 34.6007 41.9969 34.6007C41.8877 34.6007 41.7785 34.6553 41.7238 34.7644L35.8806 52.0119C35.7714 52.3394 35.6622 52.6123 35.553 52.9398C35.3891 53.6493 35.7714 54.2497 36.2083 54.7955C36.3175 54.9047 36.6998 55.4505 36.4267 55.123C36.6452 55.5051 36.8636 55.8326 37.082 56.2146C36.9182 55.9417 37.1366 56.3238 37.1366 56.3238C37.1912 56.4329 37.2459 56.5967 37.3005 56.7058C37.3551 56.815 37.5189 57.1425 37.5189 57.1971C37.7374 57.7975 37.9558 58.3978 38.065 58.9982C38.5565 61.4544 38.3927 64.5655 36.809 66.6395C35.6076 68.004 33.9147 68.8773 32.1126 69.0411C29.9282 69.314 27.7438 68.8228 25.8325 67.7857C24.9587 67.2945 24.1942 66.6941 23.5389 65.8754C23.2658 65.5479 23.0474 65.1658 22.8836 64.7292C22.7197 64.238 22.5559 63.7468 22.5013 63.2555C22.3921 62.6006 22.0098 62.0002 21.5183 61.6181C21.0814 61.3452 20.7538 61.5089 20.8084 62.0548C21.6275 67.5128 26.597 71.5518 32.058 71.5518C34.2423 71.5518 36.5905 70.8968 38.1196 69.2048C38.9934 68.1132 39.5395 66.8579 39.7579 65.4933C40.1402 63.6922 40.0856 61.8364 39.7033 60.0898C39.2118 57.6883 38.1196 55.4505 36.5359 53.5402L37.082 55.1776L42.4884 39.1855L43.2529 36.8931L42.9799 37.0568C46.311 37.0568 49.3692 35.2556 50.9529 32.3083C52.1543 30.0159 52.8096 27.4506 52.9188 24.8853C52.9734 24.2849 52.9734 23.7391 52.9734 23.1387L52.8096 23.4662C55.1578 22.1017 57.1783 19.591 57.0691 16.8074C56.9599 14.6787 55.9223 12.7138 54.2294 11.4585C52.9188 10.5852 51.3897 10.0394 49.8061 9.87564C48.8231 9.76648 47.8947 9.7119 46.9117 9.76648L48.3316 11.8405C48.4408 10.4214 48.2224 9.00235 47.6217 7.69241C46.4749 4.9088 44.0174 2.88932 41.0685 2.28893C37.5735 1.47022 33.0409 1.68854 30.2012 4.14467C28.1807 5.94583 27.3069 8.62028 27.0885 11.2402C26.9793 12.9322 27.0885 14.6787 27.4708 16.3707L27.7438 15.7704C26.1055 15.552 24.4126 15.4429 22.7743 15.4974C19.3339 15.4974 15.9481 16.207 12.7808 17.5715C9.06735 19.2089 6.22766 22.4292 5.08086 26.359C3.98867 30.398 5.24468 34.3824 7.59289 37.7118C9.01274 39.7313 10.7602 41.5324 12.8354 42.8969L11.9617 40.7137C10.2688 41.4233 8.63047 42.4603 7.75672 44.0977C7.10141 45.4076 6.88297 46.8267 7.15602 48.2458C7.6475 51.084 9.28579 53.7585 11.0879 55.9963C11.5248 56.5421 12.0163 57.1425 12.5624 57.6337L12.0709 55.5597C11.0333 55.5597 9.9411 55.7234 8.95813 56.1055C7.31985 56.6513 6.39148 58.3978 6.82836 60.0898C7.37445 62.6551 9.17657 65.1113 11.7432 65.8208C13.873 66.3666 16.112 66.0391 18.2417 65.4388C19.6616 65.0567 21.0814 64.5655 22.3921 63.9105C23.102 63.583 21.7914 61.1815 21.0268 61.5635Z" fill="#373737"/>
<path d="M44.6729 37.985C44.6729 37.985 41.2871 29.4158 35.2801 32.5269C29.273 35.638 31.0205 56.1604 42.2701 53.1584" fill="white"/>
<path d="M45.9288 38.4213C45.055 36.1289 43.4713 34.164 41.4508 32.7449C39.7579 31.6533 37.5735 30.9437 35.5529 31.4349C34.2423 31.7078 33.0955 32.5266 32.3856 33.6182C30.8565 35.9106 30.5289 39.0762 30.6927 41.7507C30.8565 44.7526 31.6757 47.8637 33.5324 50.2653C35.8806 53.2672 39.7579 54.6317 43.4713 53.7584C43.8536 53.6493 42.816 53.0489 42.7614 52.9943C42.2699 52.6668 41.7238 52.5031 41.1231 52.5576C40.4678 52.7214 39.7579 52.8306 39.0479 52.8306C38.7749 52.8306 38.5019 52.8306 38.2288 52.776C38.065 52.776 37.9011 52.7214 37.7373 52.6668C38.0104 52.776 37.5189 52.6122 37.7919 52.6668C37.5189 52.5577 37.8465 52.7214 37.6281 52.5576C37.5735 52.5031 37.4643 52.5031 37.4097 52.4485C37.3004 52.3393 37.1366 52.2302 37.0274 52.1756C36.5905 51.7935 36.2083 51.3569 35.826 50.9202C34.2423 48.7916 33.4778 46.008 33.2593 43.3881C33.0409 40.8774 33.2047 38.0938 34.2969 35.7468C34.6792 34.8189 35.2799 34.0002 36.099 33.3999C36.6997 32.9632 37.4097 32.6903 38.1742 32.5811C38.5565 32.5266 38.8841 32.472 39.2664 32.5266L39.5394 32.5811C39.9217 32.6357 39.4302 32.5266 39.6487 32.6357C39.8671 32.7449 39.4848 32.5811 39.7033 32.6903C39.4848 32.5811 39.6487 32.6903 39.7033 32.6903C39.5394 32.5811 39.8671 32.7995 39.8671 32.7995L40.1947 33.0178C40.4678 33.2361 40.7408 33.509 41.0139 33.7819C41.5054 34.3277 41.9423 34.8735 42.3245 35.5285C42.7614 36.238 43.1437 36.9476 43.4713 37.7117C43.6351 38.1484 44.5089 38.4213 44.9458 38.585C45.0004 38.4759 46.0926 38.7488 45.9288 38.4213Z" fill="#373737"/>
<path d="M63.8409 49.1737C64.9877 52.4486 67.6635 55.3414 70.9947 56.3238C72.633 56.815 74.3259 56.815 76.0188 56.433C76.2919 56.433 76.4557 56.1601 76.4011 55.9417C76.4011 55.8326 76.3465 55.7234 76.2372 55.6143C75.855 55.2868 75.3635 55.123 74.8174 55.2322C72.7968 55.778 70.6125 55.2322 68.9742 53.8677C67.7728 52.8306 66.7898 51.5753 66.1345 50.1562C66.0253 49.9379 65.916 49.7195 65.8068 49.5012C65.7522 49.3921 65.643 49.1192 65.7522 49.3921C65.5338 48.9554 65.1515 48.6825 64.66 48.6279C64.4962 48.6279 63.677 48.6825 63.8409 49.1737Z" fill="#373737"/>
<path d="M59.7452 31.1074C59.7452 31.1074 61.4381 31.3257 61.0558 32.9632C60.6735 34.6006 58.7076 34.1094 58.5984 32.6357C58.4345 31.9807 58.8714 31.2712 59.5813 31.1074C59.6359 31.162 59.6905 31.1074 59.7452 31.1074Z" fill="#373737"/>
<path d="M69.5747 106.756C69.5747 106.756 80.2236 95.2395 80.169 89.4539C80.1143 83.6684 77.3839 79.9023 81.0427 78.0466C84.7015 76.1908 86.7221 86.5611 86.7221 86.5611C86.7221 86.5611 92.6199 82.3584 95.8419 86.0153C95.8419 86.0153 101.303 82.8497 105.835 83.6684C110.368 84.4871 110.095 87.8165 107.146 88.799C105.289 89.4539 103.596 90.3818 102.067 91.5826L97.2617 94.6937C96.0057 95.5124 95.0774 96.7131 94.5859 98.1322C94.2036 99.333 94.2036 100.807 95.3504 101.953C97.8624 104.464 109.385 107.738 107.146 111.668C104.907 115.598 96.1695 110.195 90.5448 113.415C87.2682 115.271 84.7015 118.109 83.2271 121.602" fill="white"/>
<path d="M70.7761 107.411C72.1413 105.937 73.3973 104.409 74.6533 102.826C76.8923 99.9882 79.0221 97.0408 80.4966 93.766C81.1519 92.4561 81.4795 90.9824 81.5341 89.5087C81.5341 87.2163 80.9334 85.0331 80.6058 82.7407C80.3873 81.267 80.3873 79.8479 81.7526 79.0292C81.8618 78.9746 81.9164 78.9201 82.0256 78.8655C81.8618 78.9746 81.971 78.8655 82.0256 78.8655C82.2987 78.7017 81.971 78.9201 82.1348 78.8109C82.2987 78.7017 82.0802 78.8655 82.0256 78.8109C81.971 78.7563 82.3533 78.9201 82.0802 78.8109C81.8072 78.7017 82.0256 78.8109 82.0802 78.8109C81.971 78.7017 82.3533 78.9201 82.0802 78.8109C82.1895 78.9201 82.1895 78.8655 82.2441 78.9201C82.3533 79.0292 82.0256 78.7563 82.1895 78.8655C82.3533 78.9746 82.4079 79.0292 82.5171 79.1384C82.2987 78.9746 82.5717 79.2475 82.6263 79.3021C82.7355 79.4659 82.8448 79.575 82.954 79.7388C83.7185 81.0487 84.3192 82.4678 84.7015 83.9415C84.8653 84.5419 85.0292 85.1968 85.193 85.7972L85.2476 85.9064C85.193 85.6881 85.3022 86.1247 85.2476 85.9064C85.2476 85.961 85.3022 86.0701 85.3022 86.1247C85.3022 86.1793 85.3568 86.2339 85.3568 86.343C85.5206 87.2163 86.8859 87.9259 87.6504 87.3255C88.4696 86.7251 89.3979 86.2339 90.3809 85.9064C91.1454 85.5789 91.9646 85.4697 92.7837 85.4697C93.4936 85.4697 94.2035 85.7972 94.695 86.343C95.1865 86.9434 96.0603 87.1617 96.8248 86.8343C99.0638 85.4697 101.63 84.7056 104.252 84.5419C105.125 84.4873 106.054 84.5964 106.873 84.9239C107.091 85.0331 107.31 85.1423 107.474 85.2514C107.528 85.2514 107.747 85.4697 107.637 85.3606C107.692 85.4152 107.747 85.4697 107.801 85.5243C107.911 85.6881 107.801 85.5243 107.856 85.6335C108.074 85.961 108.074 86.3976 107.856 86.7797C107.583 87.2163 107.255 87.5438 106.818 87.7075C105.945 88.0896 104.962 88.4171 104.088 88.8537C103.323 89.2358 102.613 89.6725 101.903 90.1637C101.412 90.4912 100.921 90.8732 100.429 91.2007L97.3709 93.1656C96.3879 93.766 95.4596 94.4755 94.695 95.3488C93.439 96.8225 92.6745 99.1149 93.4936 100.971C94.0943 102.335 95.2957 103.154 96.4972 103.863C98.9 105.283 101.521 106.32 103.924 107.848C104.416 108.121 104.852 108.503 105.289 108.83L105.562 109.103C105.726 109.267 105.508 109.049 105.672 109.212C105.726 109.321 105.835 109.376 105.89 109.485C105.945 109.594 106.108 109.867 105.999 109.649C106.054 109.758 106.108 109.867 106.108 109.922C106.108 109.976 106.218 110.249 106.163 110.031C106.163 110.14 106.163 110.249 106.218 110.304V110.413C106.218 110.686 106.272 110.304 106.218 110.468C106.163 110.631 106.108 110.85 105.999 111.013C105.945 111.068 105.617 111.505 105.617 111.505C105.289 111.778 104.852 111.941 104.47 111.996C103.869 112.051 103.269 112.051 102.668 111.996C101.084 111.887 99.4461 111.559 97.8624 111.396C96.0603 111.123 94.2035 111.177 92.456 111.505C90.5993 111.941 88.9064 112.815 87.432 114.07C85.193 115.817 83.3909 118.054 82.2441 120.674C82.1895 120.783 82.1348 120.947 82.0802 121.111C81.6434 122.312 84.2646 123.185 84.7015 121.93C85.466 119.965 86.6674 118.218 88.1965 116.799C89.5071 115.489 91.1454 114.179 92.9475 113.633C94.5312 113.251 96.1695 113.142 97.8078 113.415C99.5007 113.579 101.194 113.906 102.886 114.07C104.306 114.179 105.89 114.179 107.201 113.47C108.293 112.924 108.948 111.832 108.894 110.631C108.784 109.431 107.965 108.448 107.091 107.684C104.907 105.719 102.067 104.573 99.5007 103.208C98.9 102.936 98.3539 102.608 97.7532 102.281C97.5347 102.117 97.2617 102.008 97.0432 101.844C96.8248 101.68 97.2071 101.953 96.934 101.789C96.8248 101.735 96.7156 101.626 96.661 101.571C95.2411 100.37 96.0057 98.1325 96.9886 96.8771C97.7532 96.0038 98.6815 95.2943 99.6645 94.7485L102.777 92.729C103.378 92.3469 103.924 91.8557 104.525 91.4736C105.344 90.9278 106.218 90.4366 107.146 90.0545C107.965 89.7816 108.784 89.4541 109.494 88.9629C110.586 88.1988 111.078 86.8343 110.641 85.5789C109.986 83.8869 108.02 83.0682 106.381 82.7407C102.777 81.9766 98.9546 83.2319 95.7326 84.8148C95.5142 84.9239 95.2411 85.0331 95.0227 85.1968L97.1525 85.6881C94.0943 82.3586 89.2341 83.3957 85.9029 85.7426L88.1965 86.7251C87.8142 84.4327 87.0497 82.1949 86.0121 80.1208C85.3022 78.7563 84.3192 77.4464 82.7902 77.0097C80.988 76.5731 79.0767 77.501 78.3122 79.193C77.5476 80.8304 78.0937 82.9045 78.4214 84.5965C78.8037 86.5614 79.2405 88.8537 78.8037 90.7095C77.9845 94.1481 75.6363 97.3137 73.5611 100.097C71.9775 102.226 70.2846 104.245 68.5371 106.21C67.4995 107.138 69.9023 108.339 70.7761 107.411Z" fill="#373737"/>
<path d="M89.2342 94.257C89.7803 93.4929 90.3264 92.7833 90.8724 92.0738C91.91 90.7093 93.1114 89.5085 94.4221 88.3623C94.7497 88.0894 95.132 87.8165 95.4596 87.5982C95.6235 87.489 95.7873 87.3798 96.0057 87.3253L96.2242 87.2161C96.2788 87.2161 96.5518 87.1069 96.388 87.1615C96.9341 86.9978 96.7703 86.3428 96.6064 85.9062C96.4426 85.5787 96.2788 85.3058 96.0057 85.0329C95.8419 84.9237 95.5689 84.6508 95.3504 84.7054C93.7668 85.0874 92.5107 86.3428 91.4185 87.489C90.2717 88.6898 89.1796 89.9451 88.1966 91.3096C87.9781 91.5825 87.7597 91.8554 87.5959 92.1829C87.0498 92.9471 88.6335 95.1303 89.2342 94.257Z" fill="#373737"/>
<path d="M85.1932 90.3279C85.4116 89.9458 85.6847 89.6183 85.9031 89.2362C86.3946 88.5813 86.9407 87.9809 87.5414 87.4351L87.4322 87.4897C87.596 87.3805 87.7052 87.2713 87.869 87.1622C88.2513 86.9439 87.4322 86.3435 87.2683 86.2343C86.9953 86.016 86.6676 85.9068 86.34 85.7977L86.0669 85.7431C85.9577 85.6885 85.7939 85.6885 85.6847 85.7431C85.084 86.1251 84.4832 86.671 84.0464 87.2168C83.6641 87.708 83.2818 88.1992 82.9542 88.6904C82.8996 88.7996 82.845 88.9088 82.7357 89.0179C82.6265 89.1271 82.8996 89.4 82.9542 89.4546C83.1726 89.6729 83.4457 89.8366 83.7187 90.0004C83.9918 90.1641 84.3194 90.2733 84.6471 90.3279C84.8109 90.3824 85.0293 90.4916 85.1932 90.3279Z" fill="#373737"/>
<path d="M2.24129 172.69C2.24129 172.69 0.657616 78.1564 31.785 73.0804C62.9125 68.0044 110.641 154.842 110.641 154.842" fill="white"/>
<path d="M3.38801 173.344C3.38801 172.526 3.38801 171.707 3.38801 170.834C3.38801 168.541 3.44262 166.249 3.49723 164.011C3.55184 160.627 3.71567 157.243 3.8795 153.859C4.09794 149.711 4.37099 145.563 4.69864 141.415C5.08091 136.83 5.57239 132.245 6.22771 127.66C6.88302 122.912 7.64756 118.218 8.57592 113.524C9.50428 109.048 10.5965 104.573 11.9617 100.206C13.1631 96.222 14.6922 92.4013 16.5489 88.6353C18.1326 85.415 20.1531 82.4131 22.556 79.7386C24.6311 77.4462 27.2524 75.6997 30.1467 74.6626C31.5665 74.1714 32.9864 73.9531 34.4608 73.8985C35.1707 73.8439 35.9353 73.8985 36.6452 73.9531C37.4644 74.0077 38.2289 74.1714 39.048 74.3351L39.6487 74.4443C39.4303 74.3897 39.9218 74.4989 40.031 74.5535C40.4679 74.6626 40.8501 74.7718 41.287 74.9355C42.1062 75.2084 42.9253 75.5359 43.7444 75.8634L44.0175 75.9726L43.9629 75.918L44.1267 76.0271L44.782 76.3546C45.2189 76.5729 45.6012 76.7367 46.038 76.955C46.9118 77.3917 47.7309 77.8829 48.5501 78.3741L49.2054 78.7562L49.4784 78.9199C49.4784 78.9199 49.6423 79.0291 49.5331 78.9199L49.6423 79.0291C50.0792 79.302 50.4614 79.5749 50.8983 79.8478C51.772 80.4482 52.6458 81.0486 53.4649 81.7035C54.3387 82.3585 55.2124 83.0135 56.0316 83.723C56.4685 84.1051 56.9053 84.4326 57.3422 84.8146L57.5607 84.9784L57.8337 85.1967L58.489 85.7425C62.0932 88.9628 65.5336 92.4013 68.8102 96.0582C72.2506 99.8243 75.3633 103.645 78.5307 107.684C81.6981 111.723 84.7016 115.816 87.5959 120.019C90.3264 123.894 93.0022 127.824 95.5689 131.809C97.8079 135.247 99.9922 138.686 102.122 142.179C102.996 143.598 103.87 145.017 104.743 146.491C105.126 147.091 105.508 147.746 105.835 148.346C105.945 148.51 105.999 148.619 106.109 148.783L106.163 148.892L106.218 149.001L106.709 149.82C107.528 151.239 108.402 152.713 109.221 154.187L109.549 154.732C109.877 155.333 110.423 155.769 111.078 155.879C111.624 155.933 112.006 155.551 111.733 155.005C111.296 154.241 110.86 153.422 110.423 152.658C109.167 150.475 107.911 148.292 106.6 146.109C104.689 142.943 102.777 139.832 100.811 136.721C98.4086 132.9 95.9511 129.134 93.3845 125.423C90.5448 121.274 87.6505 117.181 84.647 113.142C81.5342 108.994 78.3669 104.9 74.9811 100.916C71.5953 96.9315 68.2641 93.1655 64.6053 89.5631C61.2741 86.2337 57.7791 83.1226 54.011 80.2844C50.7345 77.7737 47.1302 75.6451 43.3076 74.0077C40.1402 72.5886 36.6452 71.879 33.1502 71.9336C30.0375 72.0428 26.9793 73.0252 24.3581 74.7172C21.573 76.6275 19.1702 79.0837 17.3134 81.8673C15.1291 85.1421 13.2723 88.6353 11.8525 92.2922C10.2142 96.4403 8.84896 100.643 7.75677 104.955C6.55537 109.54 5.627 114.179 4.86247 118.873C4.09794 123.567 3.44262 128.315 2.89653 133.009C2.40504 137.485 2.02278 141.961 1.69512 146.436C1.42207 150.257 1.25824 154.132 1.09441 157.953C0.985195 160.845 0.930586 163.738 0.875977 166.631C0.875977 168.214 0.875977 169.851 0.875977 171.434C0.875977 171.652 0.875977 171.871 0.875977 172.034C0.930586 172.635 1.31285 173.181 1.91356 173.454C2.29582 173.672 3.38801 173.999 3.38801 173.344Z" fill="#373737"/>
<path d="M52.6458 81.8677C49.4238 82.8501 46.5295 84.5421 44.1267 86.8345C41.7239 89.1815 39.9218 92.0197 38.8842 95.1854C38.2289 96.9319 37.6828 98.7877 36.5906 100.316C35.7168 101.571 34.57 102.663 33.2594 103.482C30.3651 105.392 26.9247 106.484 23.7027 107.63C19.4978 109.103 15.129 110.25 10.6511 110.195C10.0504 110.195 9.23121 110.413 8.90356 111.014C8.5759 111.614 9.1766 111.996 9.66809 111.996C13.8184 111.996 17.9687 111.341 21.9006 110.031C25.6141 108.94 29.1637 107.575 32.6041 105.883C35.7168 104.3 38.4473 102.117 39.9764 98.8968C40.7955 97.2048 41.287 95.3491 41.9969 93.6025C44.0175 88.7994 48.0586 85.0879 53.0827 83.5051C53.5742 83.3414 54.3387 82.9593 54.1749 82.3589C54.011 81.7585 53.0827 81.7039 52.6458 81.8677Z" fill="#373737"/>
<path d="M64.3868 95.6769C59.9634 97.096 56.1953 99.9887 53.6833 103.864C50.7344 108.23 49.533 113.252 48.277 118.273C48.0039 119.529 47.4032 120.675 46.4748 121.603C45.5465 122.421 44.5635 123.186 43.5259 123.84C37.4643 128.043 30.6381 131.1 23.4296 132.792C18.1325 133.992 12.6169 134.429 7.21061 134.102C6.55529 134.047 5.89998 134.211 5.29928 134.429C4.8624 134.647 4.8624 134.866 5.40849 134.866C15.8389 135.521 26.2693 133.665 35.826 129.408C38.1742 128.371 40.4678 127.17 42.6522 125.86C44.8366 124.605 46.8571 123.185 48.8231 121.603C49.7514 120.784 50.4613 119.747 50.789 118.546C51.1713 117.291 51.3897 116.035 51.7174 114.725C52.3727 111.996 53.2464 109.377 54.4478 106.811C56.7414 102.008 60.6187 97.478 65.8612 95.8952C66.1889 95.786 66.6804 95.6223 66.2435 95.3494C65.8066 95.0765 64.8236 95.5131 64.3868 95.6769Z" fill="#373737"/>
<path d="M80.4966 114.452C71.7044 116.035 64.6052 122.476 62.257 131.099C61.8747 132.464 61.6563 133.937 61.5471 135.357C61.4378 137.267 61.4925 138.959 60.4549 140.651C58.762 143.435 56.3045 145.891 53.8471 148.019C51.3351 150.203 48.6046 152.113 45.7103 153.805C39.8125 157.189 33.6416 160.027 27.1977 162.21C19.7162 164.83 11.1425 166.904 3.49714 163.739C3.11488 163.575 2.29573 163.411 2.24112 164.011C2.18652 164.612 3.00566 165.103 3.44253 165.267C10.4872 168.16 18.2417 167.286 25.341 165.158C28.7814 164.121 32.1671 162.865 35.4437 161.501C38.6111 160.191 41.7238 158.772 44.7273 157.189C50.5705 154.078 56.1407 150.203 60.4549 145.181C61.5471 143.926 62.7485 142.507 63.4038 140.978C64.0591 139.286 63.8953 137.431 64.0591 135.629C64.3321 132.737 65.2059 129.953 66.6257 127.442C69.8477 121.657 75.5817 117.29 82.1349 116.253C82.7356 116.144 82.4625 115.435 82.1895 115.162C81.8072 114.671 81.1519 114.398 80.4966 114.452Z" fill="#373737"/>
<path d="M154.11 48.9004C154.11 48.9004 178.575 116.962 175.954 119.309C173.333 121.656 165.196 123.949 164.432 119.091C163.667 114.233 149.305 50.1557 149.305 50.1557L154.11 48.9004Z" fill="#373737"/>
<path d="M152.745 49.0647C153.564 51.4116 154.383 53.704 155.202 56.051C157.168 61.6182 159.134 67.24 161.046 72.8072C163.339 79.5207 165.633 86.2887 167.817 93.0567C169.729 98.8968 171.585 104.737 173.169 110.632C173.715 112.597 174.207 114.561 174.534 116.526C174.589 116.854 174.643 117.181 174.698 117.563C174.698 117.727 174.753 117.836 174.753 118C174.807 118.382 174.753 117.727 174.753 118.109C174.753 118.327 174.753 118.546 174.753 118.71C174.753 118.873 174.698 118.873 174.753 118.655C174.698 118.764 174.643 118.819 174.753 118.71C175.026 118.491 174.807 118.6 174.807 118.655C174.807 118.71 174.971 118.546 174.807 118.655L174.589 118.819C174.261 119.037 173.934 119.255 173.551 119.474C172.787 119.856 171.968 120.183 171.148 120.456C170.329 120.729 169.456 120.838 168.582 120.893C168.309 120.893 168.909 120.893 168.473 120.893H168.2C167.981 120.893 167.763 120.838 167.544 120.838C167.435 120.838 167.38 120.838 167.271 120.784C167.599 120.838 167.217 120.784 167.162 120.729C167.107 120.674 166.616 120.511 166.834 120.62C166.67 120.565 166.507 120.456 166.343 120.347C166.561 120.511 166.179 120.183 166.124 120.129C165.961 119.965 166.288 120.347 166.07 120.074L165.961 119.856C165.851 119.692 165.797 119.528 165.742 119.31C165.687 119.037 165.633 118.764 165.578 118.491C165.469 117.945 165.36 117.345 165.251 116.799C164.268 111.996 163.23 107.193 162.138 102.335C160.609 95.3491 159.08 88.4173 157.551 81.431C156.076 74.8267 154.602 68.1679 153.127 61.5636C152.308 57.8521 151.489 54.1407 150.615 50.4292L150.506 49.938L149.741 51.1387L154.547 49.8834C155.093 49.7196 155.421 49.1192 155.257 48.5734C155.257 48.5189 155.202 48.4643 155.202 48.3551C154.766 47.8093 154.056 47.5364 153.4 47.8093L148.595 49.0647C148.103 49.2284 147.776 49.7196 147.83 50.2654C148.431 52.9399 149.032 55.6689 149.632 58.3434C151.052 64.6201 152.417 70.8969 153.837 77.1737C155.421 84.3783 157.059 91.583 158.643 98.7876C159.844 104.3 161.046 109.813 162.192 115.326C162.466 116.581 162.739 117.836 162.957 119.146C163.722 123.513 168.8 123.458 172.186 122.476C173.169 122.203 174.097 121.821 174.971 121.329C175.736 121.002 176.391 120.511 176.992 119.91C177.265 119.528 177.429 119.037 177.429 118.546C177.374 117.018 177.155 115.544 176.773 114.07C175.572 108.721 173.934 103.427 172.295 98.2418C170.165 91.4192 167.872 84.5967 165.578 77.8287C163.448 71.6065 161.319 65.4389 159.134 59.2712C157.933 55.8872 156.732 52.5032 155.53 49.1192C155.475 48.9555 155.421 48.7918 155.366 48.628C155.148 47.973 154.438 47.591 153.783 47.7001C153.291 47.8639 152.527 48.4097 152.745 49.0647Z" fill="#373737"/>
<path d="M145.427 59.2163C161.352 59.2163 174.261 46.3137 174.261 30.3977C174.261 14.4816 161.352 1.5791 145.427 1.5791C129.503 1.5791 116.594 14.4816 116.594 30.3977C116.594 46.3137 129.503 59.2163 145.427 59.2163Z" fill="white"/>
<path d="M114.792 37.6572C116.321 43.6611 119.761 49.0646 124.512 53.049C135.106 61.7273 149.96 63.0372 161.92 56.3784C167.217 53.3765 171.476 48.7917 174.097 43.3336C176.719 37.821 177.592 31.6534 176.555 25.6495C175.463 19.4273 172.459 13.6963 167.927 9.2753C158.37 -0.00340815 143.188 -2.40496 131.174 3.27143C125.55 5.8913 120.908 10.1486 117.795 15.4975C114.737 20.7918 113.426 26.8503 113.972 32.9087C114.136 34.4916 114.409 36.0744 114.792 37.6572C114.901 38.0939 115.665 38.4214 115.993 38.5305C116.648 38.8034 117.358 38.858 118.068 38.8034C118.942 38.7488 120.362 38.4214 120.089 37.2752C117.249 25.977 121.727 14.133 131.229 7.52872C131.775 7.14666 132.376 6.76459 132.976 6.43711C133.523 6.10963 134.123 5.78214 134.669 5.50924C135.325 5.18175 135.925 4.90885 136.581 4.69053C136.854 4.58136 137.181 4.4722 137.509 4.36304L138.055 4.1993C138.164 4.1993 138.929 3.9264 138.437 4.09014C139.147 3.87182 139.803 3.70808 140.513 3.54433L141.496 3.38059L142.042 3.27143L142.424 3.21685C142.697 3.16227 142.697 3.16227 142.315 3.21685C142.642 3.10769 142.97 3.10769 143.298 3.10769C143.68 3.05311 144.062 3.05311 144.444 2.99853L145.373 2.94395C145.537 2.94395 145.755 2.94395 145.919 2.94395H145.755H146.137C146.847 2.94395 147.503 2.99853 148.213 3.10769L148.704 3.16227C148.977 3.21685 149.196 3.05311 148.649 3.16227C149.086 3.16227 149.523 3.27143 149.96 3.38059C150.615 3.48976 151.271 3.6535 151.926 3.81724C152.035 3.87182 152.691 3.98098 151.981 3.81724C152.09 3.81724 152.254 3.87182 152.308 3.9264C152.745 4.03556 153.127 4.1993 153.51 4.30846C154.165 4.52679 154.766 4.79969 155.366 5.07259L155.858 5.29092C155.803 5.23634 155.421 5.07259 155.803 5.29092C156.186 5.50924 156.568 5.67298 156.95 5.8913C157.551 6.21879 158.097 6.54627 158.698 6.87375L159.462 7.36498L159.899 7.69246C159.954 7.74704 160.554 8.18369 160.227 7.91078C164.814 11.2948 168.2 16.0433 170.002 21.4468C173.661 32.4175 170.166 44.5344 161.21 51.9028C160.117 52.8307 158.916 53.6494 157.715 54.3589L157.223 54.6318C156.677 54.9593 157.551 54.4681 157.005 54.741C156.732 54.9047 156.459 55.0139 156.186 55.1776C155.476 55.5051 154.82 55.8326 154.056 56.1055C153.291 56.3784 152.745 56.5967 152.035 56.815C152.527 56.6513 151.926 56.8696 151.871 56.8696L151.325 57.0334C150.943 57.1425 150.561 57.2517 150.178 57.3063C149.469 57.47 148.759 57.5792 148.049 57.6883C148.704 57.6338 148.049 57.6883 147.939 57.6883L147.393 57.7429C147.011 57.7975 146.629 57.7975 146.247 57.8521C145.864 57.9067 145.482 57.9067 145.1 57.9067C145.045 57.9067 144.444 57.9067 144.881 57.9067C145.318 57.9067 144.718 57.9067 144.663 57.9067C143.898 57.9067 143.134 57.8521 142.424 57.7429L141.878 57.6883C141.223 57.6338 142.479 57.7975 141.878 57.6883L140.949 57.5246C140.24 57.4154 139.53 57.2517 138.765 57.0334C138.656 56.9788 138.001 56.8696 138.71 57.0334C138.547 56.9788 138.328 56.9242 138.164 56.8696C137.891 56.7605 137.564 56.7059 137.291 56.5967C136.581 56.3784 135.925 56.1055 135.215 55.778L134.724 55.5597C135.215 55.778 134.669 55.5051 134.615 55.5051C134.342 55.3959 134.069 55.2322 133.796 55.0685C133.14 54.741 132.485 54.3589 131.884 53.9768C131.338 53.5948 130.737 53.2127 130.246 52.8307C130.574 53.049 130.082 52.7215 130.082 52.7215L129.645 52.394C129.372 52.1757 129.099 51.9028 128.826 51.6845C127.734 50.7566 126.751 49.7741 125.823 48.6825C124.021 46.5539 122.546 44.1523 121.454 41.5325C120.853 40.1679 120.416 38.7488 120.034 37.2752C119.925 36.8385 119.16 36.511 118.833 36.4019C118.177 36.1836 117.467 36.0744 116.757 36.129C115.993 36.1836 114.518 36.511 114.792 37.6572Z" fill="#373737"/>
<path d="M109.604 137.977L142.369 104.3C137.291 101.681 145.264 76.9009 152.581 69.6963L157.059 87.3258C157.605 88.4175 158.588 90.5461 159.517 90.6553C162.793 88.9087 165.36 86.0705 166.834 82.6865L163.394 73.0257C169.838 70.7333 174.316 71.3337 174.316 71.3337C183.545 71.7704 181.797 79.5754 181.797 79.5754C192.064 85.088 186.002 93.4934 186.002 93.4934C189.607 90.4915 201.621 89.0178 201.511 95.24C201.402 101.462 194.958 100.589 182.78 107.029C170.602 113.47 169.346 120.402 169.346 120.402C169.346 120.402 140.458 176.893 108.784 178.366C77.1109 179.84 62.4756 160.628 62.4756 160.628L96.2243 131.482C96.2243 131.482 97.3165 132.846 101.521 136.503C105.89 140.324 109.604 137.977 109.604 137.977Z" fill="white"/>
<path d="M110.477 137.977L121.563 126.569L139.202 108.449L143.243 104.3C143.407 104.137 143.789 103.645 143.461 103.427C142.315 102.827 142.096 101.026 142.042 99.8248C141.987 97.4779 142.26 95.1309 142.861 92.8931C144.117 87.1075 146.192 81.5403 148.977 76.3006C150.233 73.9536 151.707 71.4975 153.564 69.6963L151.598 70.4059L155.803 86.9438C156.076 87.9808 156.459 88.9087 157.005 89.8366C157.605 90.8736 158.37 91.9106 159.68 91.2557C160.063 91.0374 160.5 90.819 160.827 90.6007C162.739 89.3999 164.377 87.9263 165.797 86.1797C166.671 85.0881 167.435 83.8327 168.036 82.5228C168.254 81.977 168.145 81.7586 167.981 81.2674L164.759 72.207L163.285 73.7353C168.309 71.9341 180.323 69.7509 180.924 78.0472C180.978 78.7567 180.924 79.4117 180.814 80.1212C180.814 80.2304 180.869 80.3396 180.978 80.3396C183.654 81.8132 186.275 84.051 186.712 87.2167C186.931 89.0724 186.603 90.9828 185.729 92.6748L185.511 93.1114C185.402 93.2752 185.565 93.0023 185.511 93.166L185.456 93.2752C185.402 93.3843 185.347 93.4935 185.238 93.5481C185.019 93.821 185.019 94.1485 185.402 94.203C185.948 94.1485 186.439 93.9301 186.821 93.6026C186.876 93.5481 186.931 93.4935 187.04 93.4389C186.767 93.6026 187.204 93.3297 187.04 93.4389L187.422 93.2206C187.149 93.3843 187.641 93.1114 187.695 93.0568C187.859 92.9477 188.077 92.8931 188.241 92.7839L188.514 92.6748L189.115 92.4564C189.497 92.3473 189.825 92.2381 190.262 92.129C191.955 91.6923 193.757 91.5286 195.504 91.6377C196.87 91.7469 198.508 92.0744 199.545 93.1114C200.583 94.0939 200.692 95.5676 200.419 96.9321C200.31 97.4779 200.092 97.9691 199.764 98.4603C199.6 98.7332 199.764 98.4603 199.6 98.6786C199.436 98.897 199.382 98.897 199.272 99.0061C199.491 98.8424 199.218 99.0607 199.109 99.1153C198.999 99.1699 198.836 99.3336 198.999 99.1699C199.163 99.0061 198.89 99.2244 198.836 99.279L198.399 99.5519C198.672 99.3882 198.235 99.6611 198.126 99.6611C197.743 99.8794 197.416 100.043 197.033 100.207L195.996 100.644L194.521 101.244C189.224 103.263 183.927 105.447 179.121 108.558C175.572 110.905 172.077 113.797 169.838 117.454C169.292 118.273 168.855 119.201 168.527 120.129C168.473 120.347 168.363 120.62 168.309 120.838C168.254 121.057 168.418 120.62 168.309 120.784C167.872 121.493 167.435 122.257 167.107 123.022C166.124 124.768 165.196 126.46 164.213 128.098C160.991 133.556 157.496 138.905 153.783 144.035C149.25 150.367 144.226 156.316 138.71 161.828C135.98 164.557 133.031 167.068 129.973 169.361C127.133 171.489 124.075 173.29 120.799 174.764C117.74 176.129 114.518 177.056 111.187 177.384C106.109 177.821 100.921 177.602 95.8966 176.784C87.869 175.583 80.2236 172.635 73.3975 168.269C69.9571 166.086 66.8443 163.411 64.1684 160.355C64.0592 160.191 63.95 160.082 63.8408 159.918L63.2947 160.901L74.7081 151.076L92.8384 135.357L96.9888 131.755L95.2413 132.246C96.2788 133.447 97.4256 134.593 98.6271 135.575C100.102 136.885 101.576 138.359 103.433 139.068C104.743 139.56 106.109 139.669 107.474 139.396C108.402 139.232 109.276 138.905 110.04 138.413C110.313 138.25 111.133 137.649 110.914 137.213C110.696 136.776 109.713 137.322 109.494 137.485C109.276 137.649 109.931 137.267 109.604 137.431L109.44 137.485C109.822 137.322 109.494 137.485 109.385 137.485C109.221 137.54 109.003 137.595 108.839 137.649C108.511 137.704 108.184 137.758 107.856 137.758C105.726 137.813 103.979 136.721 102.45 135.357C100.811 133.883 98.9547 132.409 97.5895 130.663C97.2072 130.172 96.115 130.936 95.842 131.154L84.4286 140.979L66.2436 156.698L62.0933 160.355C61.9295 160.518 61.2741 161.01 61.5472 161.337C63.4585 163.684 65.6429 165.758 68.1003 167.559C74.1074 172.09 80.9336 175.419 88.1966 177.275C93.2207 178.53 98.354 179.24 103.487 179.294C107.747 179.349 111.897 179.076 115.993 177.821C123.42 175.583 130.082 171.053 135.925 166.031C142.096 160.573 147.666 154.515 152.636 147.965C156.95 142.398 160.937 136.612 164.595 130.608C166.616 127.279 168.582 123.949 170.384 120.511C170.493 120.347 170.602 120.129 170.657 119.965C170.657 119.911 170.712 119.801 170.712 119.747C170.766 119.528 170.657 119.965 170.712 119.692C170.766 119.419 170.875 119.146 170.985 118.873C172.077 116.144 174.261 113.743 176.555 111.833C181.033 108.121 186.494 105.665 191.846 103.591C193.757 102.827 195.723 102.172 197.579 101.299C199.109 100.644 200.528 99.6065 201.621 98.3512C202.494 97.205 202.931 95.7859 202.877 94.3668C202.822 92.8931 201.948 91.5832 200.638 90.9282C199.109 90.2186 197.416 89.8912 195.723 90.0003C193.811 90.0549 191.955 90.3824 190.098 90.9282C188.46 91.4194 186.931 92.1835 185.565 93.2206L187.149 93.2752C189.333 90.2732 189.88 85.9614 187.75 82.7957C186.494 81.0491 184.855 79.6846 182.944 78.7567L183.108 78.975C183.545 77.0647 183.163 75.0998 182.07 73.4624C180.159 70.7334 176.336 70.2967 173.224 70.4059C170.002 70.515 166.834 71.17 163.831 72.2616C163.339 72.4254 162.138 73.0803 162.356 73.7899L165.797 83.4506V83.1232C164.868 85.2518 163.503 87.1075 161.701 88.6358L161.21 89.0179C161.155 89.0724 160.718 89.3999 160.937 89.2362C160.663 89.4545 160.39 89.6183 160.117 89.782C160.063 89.8366 159.68 90.0549 159.899 89.8912C160.117 89.7274 159.844 89.8912 159.79 89.9457C159.735 90.0003 159.626 90.0003 159.571 90.0549L160.554 89.8366C159.462 89.6183 158.807 87.8717 158.37 86.9984C158.206 86.7255 158.151 86.4526 158.042 86.1251L157.114 82.4136L154.383 71.6612L153.673 68.9322C153.51 68.2772 151.871 69.478 151.708 69.6417C149.905 71.4975 148.431 73.6261 147.23 75.8639C145.755 78.5384 144.444 81.322 143.352 84.1602C142.26 87.053 141.332 90.0003 140.567 93.0023C139.912 95.4584 139.584 97.9691 139.53 100.48C139.53 102.063 139.693 104.3 141.277 105.119L141.496 104.246L130.41 115.653L112.771 133.774L108.73 137.922C108.457 138.195 108.129 138.741 108.73 138.795C109.331 138.85 110.095 138.359 110.477 137.977Z" fill="#373737"/>
<path d="M176.992 94.421C176.937 94.6393 177.046 94.3664 177.046 94.3118L177.265 93.9298C177.483 93.5477 177.702 93.1656 177.92 92.7836C178.575 91.6374 179.231 90.4366 179.831 89.1812C181.36 86.1247 182.562 82.7407 182.78 79.3021C182.835 78.538 180.923 79.193 180.869 79.8479C180.65 83.3411 179.394 86.6705 177.865 89.727C177.319 90.8732 176.664 92.0194 176.009 93.111C175.626 93.6568 175.299 94.2572 175.08 94.9122C174.971 95.3488 175.79 95.2397 176.009 95.1851C176.446 95.1305 176.828 94.8576 176.992 94.421Z" fill="#373737"/>
<path d="M183.053 98.8417L186.603 94.639L187.094 94.0386C187.477 93.5474 187.367 92.8924 186.931 92.5103C186.876 92.4558 186.821 92.4557 186.767 92.4012C186.439 92.2374 186.111 92.2374 185.784 92.3466C185.456 92.4557 185.128 92.6741 184.91 92.947L181.36 97.1497L180.814 97.7501C180.432 98.2413 180.541 98.8963 180.978 99.2783C181.033 99.3329 181.087 99.3329 181.142 99.3875C181.47 99.5512 181.797 99.5512 182.125 99.4421C182.507 99.3329 182.835 99.1146 183.053 98.8417Z" fill="#373737"/>
<path d="M143.734 20.1367C142.478 20.1367 141.332 20.6825 140.512 21.6104C139.693 22.5383 139.147 23.6299 138.874 24.8307C138.546 25.9768 138.383 27.2322 138.874 28.3238C139.584 29.8521 141.495 30.4525 143.188 30.5616C144.881 30.6708 146.574 30.3433 148.267 30.7254C149.96 31.1074 151.544 32.4719 151.434 34.1094C151.38 34.7643 151.107 35.3647 150.724 35.9105C148.922 38.6395 145.864 40.2224 142.588 40.1132" fill="white"/>
<path d="M143.625 18.0087C140.13 17.9541 137.509 20.5739 136.362 23.685C135.871 24.995 135.707 26.4141 135.871 27.7786C136.144 29.2523 137.072 30.5622 138.383 31.3263C139.639 32.0359 141.004 32.4725 142.424 32.5817C143.243 32.6363 144.117 32.6363 144.936 32.6363C145.264 32.6363 145.591 32.5817 145.974 32.5817H146.465C147.12 32.5817 146.137 32.5271 146.738 32.5817L147.23 32.6363C147.939 32.7454 147.175 32.6363 147.175 32.5817C147.175 32.5271 148.158 33.0729 147.83 32.8546C147.503 32.6363 148.431 33.3458 148.103 33.0729C147.776 32.8 148.158 33.1821 148.213 33.2367C148.267 33.2912 148.322 33.4004 148.376 33.455C148.267 33.2366 148.267 33.2366 148.322 33.3458C148.376 33.455 148.431 33.5641 148.486 33.6733C148.486 33.4004 148.649 33.8916 148.486 33.6733C148.486 33.7825 148.486 33.9462 148.486 34.0554C148.486 34.3283 148.649 33.7279 148.431 34.2191C148.376 34.3283 148.322 34.492 148.267 34.6558C148.322 34.5466 148.431 34.3828 148.213 34.7103C148.049 34.9832 147.83 35.3107 147.612 35.5836L147.339 35.9111C147.557 35.6382 147.393 35.8565 147.284 35.9657C147.066 36.184 146.793 36.4569 146.52 36.6206C146.41 36.6752 146.301 36.7844 146.192 36.839C145.974 37.0573 146.52 36.6206 146.137 36.8936C145.864 37.0573 145.537 37.221 145.264 37.3848L144.881 37.5485C144.281 37.8214 145.373 37.3848 144.772 37.6031C144.444 37.7123 144.117 37.8214 143.789 37.876C143.68 37.876 143.516 37.9306 143.407 37.9306C143.625 37.8214 143.898 37.876 143.407 37.9306C143.025 37.9306 142.642 37.9306 142.315 37.9306C141.168 37.876 139.53 38.8585 139.693 40.1684C139.857 41.6421 141.277 42.1333 142.533 42.1333C145.427 42.1879 148.213 41.26 150.506 39.4588C152.581 37.8214 154.875 34.8741 153.673 32.145C152.308 28.9794 148.595 28.2698 145.482 28.3244C144.772 28.3244 144.062 28.3244 143.298 28.379C142.861 28.4336 143.735 28.4336 143.352 28.379L142.97 28.3244L142.588 28.2698C142.479 28.2698 141.932 28.0515 142.26 28.2152L141.769 27.9969C141.441 27.8877 142.096 28.2152 141.823 28.0515C141.714 27.9423 141.55 27.8877 141.441 27.7786C141.496 27.8332 141.769 28.1061 141.496 27.8332C141.441 27.724 141.332 27.6148 141.277 27.5603C141.332 27.6148 141.441 27.9423 141.277 27.5603C141.222 27.5057 141.059 26.9053 141.113 27.2874C141.059 26.9599 141.059 26.6324 141.059 26.3049C141.059 25.9228 141.004 26.5778 141.059 26.1958C141.113 25.9774 141.168 25.7591 141.223 25.5408C141.277 25.2133 141.386 24.8858 141.496 24.5583C141.55 24.3946 141.605 24.2854 141.659 24.1217C141.659 24.0671 141.932 23.5213 141.769 23.7942C141.932 23.4667 142.151 23.1392 142.369 22.8663C142.424 22.8117 142.697 22.5388 142.424 22.8117C142.588 22.648 142.752 22.5388 142.915 22.3751C142.479 22.5934 142.861 22.4297 142.915 22.3751C142.97 22.3205 143.516 22.1022 143.188 22.2114C142.861 22.3205 143.461 22.1568 143.461 22.1568L143.188 22.2114C143.352 22.2114 143.461 22.2114 143.625 22.2114C144.772 22.2114 146.41 21.2835 146.247 19.9736C146.083 18.5545 144.663 18.0087 143.407 18.0087H143.625Z" fill="#808EFF"/>
<path d="M137.946 18.7725L139.966 21.6107L137.946 18.7725Z" fill="white"/>
<path d="M136.035 19.9186L138.055 22.7568C138.274 23.0297 138.547 23.3026 138.874 23.4663C139.147 23.6846 139.475 23.8484 139.803 23.9029C140.13 24.0121 140.458 24.0121 140.731 23.9575C141.059 23.9575 141.332 23.8484 141.605 23.6846L142.042 23.3026C142.315 22.9751 142.424 22.593 142.478 22.2109C142.478 21.556 142.26 20.901 141.878 20.4098L139.857 17.5716C139.639 17.2987 139.366 17.0258 139.038 16.862C138.765 16.6437 138.437 16.48 138.11 16.4254C137.782 16.3162 137.454 16.3162 137.181 16.3708C136.854 16.3708 136.581 16.48 136.308 16.6437L135.871 17.0258C135.598 17.3533 135.488 17.7353 135.434 18.1174C135.434 18.7724 135.652 19.4273 136.035 19.9186Z" fill="#808EFF"/>
<path d="M148.54 39.0762C149.195 39.9495 149.741 40.9319 150.124 41.9144L148.54 39.0762Z" fill="white"/>
<path d="M146.247 39.5129C146.629 40.1133 147.011 40.7137 147.339 41.3141L147.066 40.8228C147.229 41.1503 147.393 41.5324 147.557 41.8599C147.994 42.7332 148.759 43.4427 149.742 43.661C150.069 43.7702 150.397 43.8248 150.779 43.8248C151.325 43.8794 151.926 43.661 152.363 43.3335L152.636 42.9515C152.745 42.624 152.745 42.2965 152.636 41.969C152.144 40.7683 151.544 39.6766 150.779 38.6396C150.397 38.0938 149.796 37.6572 149.195 37.4388C148.868 37.2751 148.54 37.2205 148.158 37.1659C147.83 37.1114 147.503 37.1114 147.175 37.1659C146.629 37.2205 146.192 37.548 145.973 38.0392C145.81 38.5305 145.919 39.0763 146.247 39.5129Z" fill="#808EFF"/>
<path d="M163.558 29.7431C163.776 32.4721 163.285 35.2557 162.083 37.7665C162.029 37.8756 162.247 37.821 162.247 37.7665C162.52 37.6573 162.739 37.5481 162.957 37.3844C163.23 37.2207 163.558 37.0023 163.831 36.784C163.995 36.6748 164.158 36.5111 164.322 36.3474C165.524 33.8366 166.015 30.9985 165.797 28.2148C165.36 28.3786 164.978 28.5969 164.595 28.8698C164.322 29.0336 164.049 29.2519 163.831 29.4702C163.722 29.4702 163.558 29.5794 163.558 29.7431Z" fill="#808EFF"/>
<path d="M159.626 41.6962L157.496 44.0432C157.387 44.1524 157.278 44.2615 157.223 44.4253C157.168 44.589 157.114 44.6982 157.114 44.8619C157.114 45.1894 157.223 45.5715 157.441 45.8444C157.66 46.1173 157.988 46.3356 158.315 46.3902C158.643 46.4447 158.971 46.3902 159.189 46.1718L161.319 43.8795C161.428 43.7703 161.537 43.6611 161.592 43.4974C161.646 43.3336 161.701 43.2245 161.701 43.0607C161.701 42.3512 161.155 41.6962 160.5 41.5871C160.227 41.4779 159.899 41.5325 159.626 41.6962Z" fill="#808EFF"/>
</svg>
