<svg width="100" height="100" viewBox="0 0 100 100" fill="none" xmlns="http://www.w3.org/2000/svg">
<g clip-path="url(#clip0_167_2656)">
<path d="M49.9561 54.6963C40.2215 54.6963 32.3018 46.7768 32.3018 37.0422V10.5469H67.6973V37.0422C67.6973 46.7766 59.7775 54.6963 50.043 54.6963H49.9561Z" fill="#CCD2FF"/>
<path d="M87.5644 21.2535V10.6025C87.5644 9.52383 86.6898 8.64941 85.6113 8.64941H78.2445V3.90625H79.1834C80.2619 3.90625 81.1365 3.03184 81.1365 1.95312C81.1365 0.874414 80.2619 0 79.1834 0H20.8166C19.7381 0 18.8635 0.874414 18.8635 1.95312C18.8635 3.03184 19.7381 3.90625 20.8166 3.90625H21.7555V8.64941H14.3887C13.3102 8.64941 12.4355 9.52383 12.4355 10.6025V21.2535C12.4355 23.7709 13.5162 26.1752 15.4006 27.8498L21.7555 33.4984V37.042C21.7555 50.3738 31.0545 61.5744 43.507 64.4988C43.1949 65.5979 42.8174 66.6436 42.3518 67.7053C41.6004 69.4187 40.6221 71.1359 39.4436 72.8094L36.4352 77.0818H21.2723C20.1938 77.0818 19.3191 77.9563 19.3191 79.035V96.0938H16.418C15.3395 96.0938 14.4648 96.9682 14.4648 98.0469C14.4648 99.1256 15.3395 100 16.418 100H83.582C84.6606 100 85.5352 99.1256 85.5352 98.0469C85.5352 96.9682 84.6606 96.0938 83.582 96.0938H80.6809V79.035C80.6809 77.9563 79.8063 77.0818 78.7277 77.0818H63.5648L60.5564 72.8094C59.3781 71.1359 58.3996 69.4187 57.6482 67.7053C57.1826 66.6436 56.8051 65.598 56.493 64.499C68.9457 61.5746 78.2445 50.374 78.2445 37.0422V33.4986L84.5994 27.85C86.4838 26.1752 87.5644 23.7709 87.5644 21.2535ZM17.9957 24.9303C16.9445 23.9961 16.3418 22.6561 16.3418 21.2535V12.5557H21.7555V28.2723L17.9957 24.9303ZM76.7746 96.0938H23.2254V80.9881H76.7746V96.0938ZM54.0709 69.2742C54.927 71.2262 56.0344 73.1723 57.3625 75.0584L58.7873 77.0818H41.2131L42.6379 75.0584C43.966 73.1721 45.0734 71.226 45.9295 69.2742C46.5307 67.9037 47.0041 66.5586 47.3865 65.1268C48.2332 65.2035 49.0906 65.243 49.9568 65.243H50.0438C50.9102 65.243 51.7674 65.2035 52.6141 65.1268C52.9963 66.5588 53.4697 67.9039 54.0709 69.2742ZM74.3383 37.0422C74.3383 50.4383 63.4396 61.3369 50.0434 61.3369H49.9564C36.5602 61.3369 25.6615 50.4385 25.6615 37.0422V3.90625H74.3383V37.0422ZM83.6582 21.2535C83.6582 22.6561 83.0555 23.9961 82.0043 24.9303L78.2445 28.2723V12.5557H83.6582V21.2535Z" fill="#1A35FE"/>
<path d="M57.6077 26.4154L53.9972 25.6871L52.1886 22.4781C51.7441 21.6894 50.9054 21.1996 49.9999 21.1996C49.0944 21.1996 48.2558 21.6894 47.8111 22.4783L46.0027 25.6871L42.3919 26.4156C41.5042 26.5947 40.7792 27.2412 40.4995 28.1023C40.2198 28.9635 40.4267 29.9125 41.0394 30.5789L43.5323 33.2906L43.1095 36.9498C43.0056 37.8494 43.3962 38.7388 44.129 39.2709C44.565 39.5877 45.0843 39.75 45.6064 39.75C45.9614 39.75 46.3181 39.675 46.6511 39.5224L49.9999 37.9894L53.3487 39.5222C54.172 39.8992 55.1386 39.8029 55.871 39.2707C56.6038 38.7385 56.9944 37.8492 56.8905 36.9494L56.4677 33.2904L58.9605 30.5789C59.5734 29.9125 59.7802 28.9635 59.5005 28.1023C59.2208 27.2412 58.4956 26.5947 57.6077 26.4154ZM52.987 31.3047C52.6028 31.7224 52.4196 32.2869 52.4849 32.8508L52.7263 34.9414L50.8126 34.0656C50.5546 33.9474 50.2773 33.8885 49.9999 33.8885C49.7226 33.8885 49.4452 33.9474 49.1872 34.0656L47.2736 34.9414L47.515 32.8508C47.5802 32.2869 47.397 31.7226 47.0128 31.3047L45.5886 29.7554L47.6515 29.3392C48.2079 29.2269 48.688 28.8781 48.9667 28.3836L49.9999 26.5502L51.0331 28.3836C51.312 28.8781 51.7921 29.2267 52.3484 29.3392L54.4112 29.7554L52.987 31.3047Z" fill="#1A35FE"/>
<path d="M58.0322 86.5879H41.9678C40.8893 86.5879 40.0146 87.4623 40.0146 88.541C40.0146 89.6197 40.8893 90.4941 41.9678 90.4941H58.0322C59.1107 90.4941 59.9854 89.6197 59.9854 88.541C59.9854 87.4623 59.1107 86.5879 58.0322 86.5879Z" fill="#1A35FE"/>
</g>
<defs>
<clipPath id="clip0_167_2656">
<rect width="100" height="100" fill="white"/>
</clipPath>
</defs>
</svg>
