<svg width="100" height="100" viewBox="0 0 100 100" fill="none" xmlns="http://www.w3.org/2000/svg">
<path d="M73.3652 12.5V46.0938H26.6334V12.5H73.3652Z" fill="#CCD2FF"/>
<path d="M75.782 0H24.2172C19.2053 0 15.1279 4.07754 15.1279 9.08945V90.9105C15.1279 95.9225 19.2053 100 24.2174 100H75.7822C80.7941 100 84.8717 95.9225 84.8717 90.9105V9.08945C84.8713 4.07754 80.7939 0 75.782 0ZM80.965 90.9105C80.965 93.7686 78.6398 96.0938 75.7818 96.0938H24.2172C21.3592 96.0938 19.034 93.7686 19.034 90.9105V9.08945C19.0342 6.23144 21.3592 3.90625 24.2172 3.90625H75.782C78.64 3.90625 80.9652 6.23144 80.9652 9.08945V90.9105H80.965Z" fill="#1A35FE"/>
<path d="M35.8324 56.1409H26.6338C25.5551 56.1409 24.6807 57.0155 24.6807 58.094V67.2926C24.6807 68.3711 25.5551 69.2457 26.6338 69.2457H35.8324C36.9111 69.2457 37.7855 68.3711 37.7855 67.2926V58.094C37.7855 57.0155 36.9111 56.1409 35.8324 56.1409ZM33.8793 65.3395H28.5869V60.0471H33.8793V65.3395Z" fill="#1A35FE"/>
<path d="M54.599 56.1409H45.4004C44.3217 56.1409 43.4473 57.0155 43.4473 58.094V67.2926C43.4473 68.3711 44.3217 69.2457 45.4004 69.2457H54.599C55.6777 69.2457 56.5521 68.3711 56.5521 67.2926V58.094C56.5521 57.0155 55.6777 56.1409 54.599 56.1409ZM52.6459 65.3395H47.3535V60.0471H52.6459V65.3395Z" fill="#1A35FE"/>
<path d="M35.8324 73.6514H26.6338C25.5551 73.6514 24.6807 74.526 24.6807 75.6045V84.8031C24.6807 85.8816 25.5551 86.7562 26.6338 86.7562H35.8324C36.9111 86.7562 37.7855 85.8816 37.7855 84.8031V75.6045C37.7855 74.5258 36.9111 73.6514 35.8324 73.6514ZM33.8793 82.8498H28.5869V77.5574H33.8793V82.8498Z" fill="#1A35FE"/>
<path d="M54.599 73.6514H45.4004C44.3217 73.6514 43.4473 74.526 43.4473 75.6045V84.8031C43.4473 85.8816 44.3217 86.7562 45.4004 86.7562H54.599C55.6777 86.7562 56.5521 85.8816 56.5521 84.8031V75.6045C56.5521 74.5258 55.6777 73.6514 54.599 73.6514ZM52.6459 82.8498H47.3535V77.5574H52.6459V82.8498Z" fill="#1A35FE"/>
<path d="M73.3656 56.1409H64.167C63.0883 56.1409 62.2139 57.0155 62.2139 58.094V84.803C62.2139 85.8815 63.0883 86.7561 64.167 86.7561H73.3656C74.4443 86.7561 75.3187 85.8815 75.3187 84.803V58.094C75.3187 57.0155 74.4443 56.1409 73.3656 56.1409ZM71.4125 82.8499H66.1201V60.0471H71.4125V82.8499Z" fill="#1A35FE"/>
<path d="M54.1178 29.1824C53.3363 29.1824 52.5994 29.3946 51.9525 29.7692L54.9488 22.6213C55.3658 21.6264 54.8975 20.4819 53.9025 20.0649C52.9074 19.6481 51.7633 20.1164 51.3463 21.111L50.4328 23.2901C49.9955 20.978 48.1209 19.235 45.8812 19.235C43.3184 19.235 41.2334 21.5176 41.2334 24.3233C41.2334 27.1289 43.3184 29.4115 45.8812 29.4115C46.6984 29.4115 47.467 29.1795 48.1348 28.7725L45.2475 35.6604C44.8305 36.6553 45.2988 37.7998 46.2937 38.2168C46.5404 38.3201 46.7963 38.3692 47.0479 38.3692C47.8113 38.3692 48.5363 37.9186 48.85 37.1705L49.5875 35.411C50.0615 37.6696 51.9129 39.359 54.1178 39.359C56.6807 39.359 58.7656 37.0764 58.7656 34.2707C58.7656 31.4651 56.6807 29.1824 54.1178 29.1824ZM45.8811 25.5051C45.5311 25.5051 45.1395 24.9996 45.1395 24.3231C45.1395 23.6465 45.5311 23.141 45.8811 23.141C46.2311 23.141 46.6227 23.6465 46.6227 24.3231C46.6227 24.9996 46.2313 25.5051 45.8811 25.5051ZM54.1178 35.4528C53.7678 35.4528 53.3762 34.9473 53.3762 34.2707C53.3762 33.5942 53.7678 33.0887 54.1178 33.0887C54.4678 33.0887 54.8594 33.5942 54.8594 34.2707C54.8594 34.9473 54.4678 35.4528 54.1178 35.4528Z" fill="#1A35FE"/>
</svg>
