<svg width="100" height="100" viewBox="0 0 100 100" fill="none" xmlns="http://www.w3.org/2000/svg">
<g clip-path="url(#clip0_567_19700)">
<path fill-rule="evenodd" clip-rule="evenodd" d="M42.1879 42.1877V31.1393L36.1896 25.141C33.1512 22.1027 28.1795 22.1027 25.141 25.141C22.1027 28.1793 22.1027 33.1512 25.141 36.1896L31.1393 42.1879L42.1879 42.1877Z" fill="#CCD2FF"/>
<path fill-rule="evenodd" clip-rule="evenodd" d="M42.1879 57.8125H31.1393L25.141 63.8107C22.1027 66.8492 22.1027 71.8209 25.141 74.8594C28.1795 77.8977 33.1512 77.8977 36.1895 74.8594L42.1877 68.8611V57.8125H42.1879Z" fill="#CCD2FF"/>
<path fill-rule="evenodd" clip-rule="evenodd" d="M57.8125 57.8125V68.8611L63.8107 74.8594C66.849 77.8977 71.8209 77.8977 74.8594 74.8594C77.8977 71.8211 77.8977 66.8492 74.8594 63.8107L68.8611 57.8125H57.8125Z" fill="#CCD2FF"/>
<path fill-rule="evenodd" clip-rule="evenodd" d="M57.8127 42.1876H68.8611L74.8594 36.1894C77.8979 33.1509 77.8979 28.1792 74.8594 25.1408C71.8209 22.1025 66.8492 22.1025 63.8107 25.1408L57.8125 31.1388V42.1876H57.8127Z" fill="#CCD2FF"/>
<path d="M50 100C44.6153 100 40.2344 95.6192 40.2344 90.2344V59.7658H9.76559C4.38084 59.7658 0 55.3849 0 50.0002C0 44.6155 4.38084 40.2346 9.76559 40.2346H40.2344V9.76559C40.2344 4.38084 44.6153 0 50 0C55.3847 0 59.7656 4.38084 59.7656 9.76559V40.2344H90.2342C95.619 40.2344 99.9998 44.6153 99.9998 50C99.9998 55.3847 95.619 59.7656 90.2342 59.7656H59.7656V90.2342C59.7656 95.6192 55.3849 100 50 100ZM9.76559 44.1406C6.53474 44.1406 3.90623 46.7692 3.90623 50C3.90623 53.2308 6.53474 55.8593 9.76559 55.8593H42.1875C43.2662 55.8593 44.1406 56.7338 44.1406 57.8125V90.2342C44.1406 93.4651 46.7692 96.0936 50 96.0936C53.2308 96.0936 55.8593 93.4651 55.8593 90.2342V57.8125C55.8593 56.7338 56.7338 55.8593 57.8125 55.8593H90.2342C93.4651 55.8593 96.0936 53.2308 96.0936 50C96.0936 46.7692 93.4651 44.1406 90.2342 44.1406H57.8125C56.7338 44.1406 55.8593 43.2662 55.8593 42.1875V9.76559C55.8593 6.53474 53.2308 3.90623 50 3.90623C46.7692 3.90623 44.1406 6.53474 44.1406 9.76559V42.1875C44.1406 43.2662 43.2662 44.1406 42.1875 44.1406H9.76559Z" fill="#1A35FE"/>
</g>
<defs>
<clipPath id="clip0_567_19700">
<rect width="100" height="100" fill="white"/>
</clipPath>
</defs>
</svg>
