<svg width="100" height="100" viewBox="0 0 100 100" fill="none" xmlns="http://www.w3.org/2000/svg">
<g clip-path="url(#clip0_210_8661)">
<path d="M85.9311 82.7776C85.9311 80.8008 85.109 78.9817 83.7785 77.6877C85.109 76.3936 85.9311 74.5748 85.9311 72.5979C85.9311 70.1594 84.6801 67.9612 82.7672 66.692C83.668 65.4971 84.2004 64.0088 84.2004 62.4182C84.2004 58.5346 81.0898 55.3752 77.2756 55.3752L67.6275 55.3309C65.5867 55.3188 63.9262 53.6592 63.9262 51.6313V41.2502C63.9262 36.9453 60.4428 33.443 56.1609 33.443C51.8791 33.443 48.3957 36.9453 48.3957 41.2502V51.5121C48.3957 53.5438 46.7322 55.2035 44.6814 55.2119C38.7232 55.2547 33.8875 60.1545 33.902 66.1377L33.9062 67.1998H24.9064V64.5569C24.9064 63.4783 24.032 62.6037 22.9533 62.6037H6.88281C5.8041 62.6037 4.92969 63.4783 4.92969 64.5569V93.1875C4.92969 94.266 5.8041 95.1406 6.88281 95.1406H22.9533C24.032 95.1406 24.9064 94.266 24.9064 93.1875V90.5446H34.4775C35.0908 92.5811 36.1914 94.4514 37.7242 96.0158C40.2412 98.5852 43.6045 100 47.1945 100H77.167C80.925 100 84.0844 96.95 84.2098 93.201C84.2666 91.5063 83.7334 89.9242 82.7877 88.6696C84.6889 87.3985 85.9311 85.2075 85.9311 82.7776ZM8.83594 91.2344V66.5104H21.0002V91.2344H8.83594ZM79.417 79.6705C80.9035 79.883 82.0248 81.2188 82.0248 82.7776C82.0248 84.3114 80.9393 85.6291 79.4885 85.8735L77.8643 85.9668C76.8625 86.0242 76.0674 86.8317 76.0248 87.8342C75.9824 88.8367 76.7064 89.7084 77.6998 89.8502C79.2396 90.0703 80.3598 91.4547 80.3059 93.0705C80.25 94.7375 78.842 96.0938 77.1672 96.0938H47.1945C44.6631 96.0938 42.2908 95.0953 40.5145 93.2821C38.8223 91.5549 37.8748 89.2998 37.8205 86.8926V86.4328C37.8205 85.3621 36.9582 84.4908 35.8875 84.4799C35.8807 84.4797 35.874 84.4797 35.8672 84.4797C34.8057 84.4797 33.9367 85.3291 33.9148 86.3928C33.9133 86.4748 33.9123 86.5565 33.9119 86.6383H24.9066V71.1067H35.8676C36.3869 71.1067 36.885 70.8996 37.2514 70.5319C37.618 70.1637 37.8227 69.6651 37.8207 69.1455L37.8082 66.1254C37.799 62.2891 40.8949 59.1459 44.7035 59.1186C48.8934 59.1014 52.302 55.6893 52.302 51.5125V41.2506C52.302 39.0996 54.033 37.3496 56.1609 37.3496C58.2889 37.3496 60.0199 39.0996 60.0199 41.2506V51.6317C60.0199 55.8012 63.4225 59.2129 67.6072 59.2375L77.2668 59.2819C78.9361 59.2819 80.2943 60.6889 80.2943 62.4186C80.2943 63.9774 79.1732 65.3131 77.6865 65.5256C76.693 65.6676 75.9688 66.5393 76.0113 67.542C76.0541 68.5448 76.8496 69.352 77.8518 69.409L79.4891 69.5026C80.94 69.7469 82.025 71.0647 82.025 72.5985C82.025 74.1571 80.9039 75.4928 79.4172 75.7053C78.4551 75.8428 77.7404 76.6668 77.7404 77.6387V77.7373C77.7402 78.709 78.4551 79.533 79.417 79.6705Z" fill="#1A35FE"/>
<path d="M83.8857 33.4516L79.3999 35.344C77.73 36.0485 75.9075 34.73 76.0644 32.9307L76.4857 28.0975L73.2921 24.4339C72.1032 23.07 72.7993 20.9366 74.5661 20.5292L79.3122 19.4346L81.8243 15.278C82.7595 13.7307 85.0122 13.7307 85.9472 15.278L88.4593 19.4346L93.2054 20.5292C94.9722 20.9366 95.6683 23.0702 94.4794 24.4339L91.2859 28.0975L91.7072 32.9307C91.864 34.73 90.0415 36.0485 88.3716 35.344L83.8857 33.4516Z" fill="#CCD2FF"/>
<path d="M28.1913 33.4516L23.7056 35.344C22.0357 36.0485 20.2132 34.73 20.37 32.9307L20.7913 28.0975L17.5978 24.4339C16.4089 23.07 17.105 20.9366 18.8718 20.5292L23.6179 19.4346L26.13 15.278C27.0652 13.7307 29.3179 13.7307 30.2529 15.278L32.765 19.4346L37.5111 20.5292C39.2779 20.9366 39.974 23.0702 38.7851 24.4339L35.5915 28.0975L36.0128 32.9307C36.1697 34.73 34.3472 36.0485 32.6773 35.344L28.1913 33.4516Z" fill="#CCD2FF"/>
<path d="M56.0392 23.6879L50.5433 26.0065C48.4974 26.8696 46.2646 25.2541 46.4566 23.0498L46.9726 17.1283L43.0599 12.6399C41.6034 10.969 42.4562 8.3551 44.6208 7.85588L50.4357 6.51487L53.5134 1.4219C54.6591 -0.473804 57.4191 -0.473804 58.5648 1.4219L61.6425 6.51467L67.4573 7.85569C69.622 8.35491 70.4747 10.9688 69.0183 12.6397L65.1056 17.1281L65.6216 23.0496C65.8138 25.2539 63.5808 26.8696 61.5349 26.0063L56.0392 23.6879Z" fill="#CCD2FF"/>
</g>
<defs>
<clipPath id="clip0_210_8661">
<rect width="100" height="100" fill="white"/>
</clipPath>
</defs>
</svg>
