<svg width="920" height="748" viewBox="0 0 920 748" fill="none" xmlns="http://www.w3.org/2000/svg">
<g clip-path="url(#clip0_40000229_47975)">
<path d="M1974 -425H-955V1471H1974V-425Z" fill="url(#paint0_linear_40000229_47975)"/>
<g opacity="0.5">
<path opacity="0.03" d="M757.887 196.912C843.953 196.912 913.723 127.337 913.723 41.5122C913.723 -44.3127 843.953 -113.888 757.887 -113.888C671.821 -113.888 602.051 -44.3127 602.051 41.5122C602.051 127.337 671.821 196.912 757.887 196.912Z" fill="url(#paint1_radial_40000229_47975)"/>
<path opacity="0.05" d="M929.103 766.208C1011.91 766.208 1079.04 699.269 1079.04 616.694C1079.04 534.119 1011.91 467.179 929.103 467.179C846.296 467.179 779.168 534.119 779.168 616.694C779.168 699.269 846.296 766.208 929.103 766.208Z" fill="url(#paint2_radial_40000229_47975)"/>
<path opacity="0.06" d="M-25.6622 708.242C52.2649 708.242 115.437 645.247 115.437 567.538C115.437 489.829 52.2649 426.833 -25.6622 426.833C-103.589 426.833 -166.762 489.829 -166.762 567.538C-166.762 645.247 -103.589 708.242 -25.6622 708.242Z" fill="url(#paint3_radial_40000229_47975)"/>
<path opacity="0.04" d="M376.594 1336.86C572.584 1336.86 731.465 1178.43 731.465 982.988C731.465 787.547 572.584 629.111 376.594 629.111C180.604 629.111 21.7227 787.547 21.7227 982.988C21.7227 1178.43 180.604 1336.86 376.594 1336.86Z" fill="url(#paint4_radial_40000229_47975)"/>
<path opacity="0.13" d="M-179.615 446.665C-71.588 446.665 15.985 359.337 15.985 251.613C15.985 143.889 -71.588 56.5614 -179.615 56.5614C-287.642 56.5614 -375.215 143.889 -375.215 251.613C-375.215 359.337 -287.642 446.665 -179.615 446.665Z" fill="url(#paint5_radial_40000229_47975)"/>
</g>
</g>
<defs>
<linearGradient id="paint0_linear_40000229_47975" x1="-955" y1="523" x2="1974" y2="523" gradientUnits="userSpaceOnUse">
<stop stop-color="#011EFE"/>
<stop offset="0.9994" stop-color="#5D85CA"/>
</linearGradient>
<radialGradient id="paint1_radial_40000229_47975" cx="0" cy="0" r="1" gradientUnits="userSpaceOnUse" gradientTransform="translate(757.887 41.5118) scale(155.835 155.402)">
<stop stop-color="white"/>
<stop offset="0.8587" stop-color="white"/>
<stop offset="1" stop-color="white"/>
</radialGradient>
<radialGradient id="paint2_radial_40000229_47975" cx="0" cy="0" r="1" gradientUnits="userSpaceOnUse" gradientTransform="translate(929.102 616.694) scale(149.933 149.516)">
<stop stop-color="white"/>
<stop offset="0.8587" stop-color="white"/>
<stop offset="1" stop-color="white"/>
</radialGradient>
<radialGradient id="paint3_radial_40000229_47975" cx="0" cy="0" r="1" gradientUnits="userSpaceOnUse" gradientTransform="translate(-25.6629 567.537) scale(141.099 140.707)">
<stop stop-color="#FFFFCC"/>
<stop offset="1" stop-color="#FFFF95"/>
</radialGradient>
<radialGradient id="paint4_radial_40000229_47975" cx="0" cy="0" r="1" gradientUnits="userSpaceOnUse" gradientTransform="translate(376.594 982.987) scale(354.867 353.881)">
<stop stop-color="#FFFFCC"/>
<stop offset="1" stop-color="#FFFF95"/>
</radialGradient>
<radialGradient id="paint5_radial_40000229_47975" cx="0" cy="0" r="1" gradientUnits="userSpaceOnUse" gradientTransform="translate(-179.614 251.614) scale(195.597 195.054)">
<stop stop-color="white"/>
<stop offset="0.8587" stop-color="white"/>
<stop offset="1" stop-color="white"/>
</radialGradient>
<clipPath id="clip0_40000229_47975">
<rect width="2929" height="1896" fill="white" transform="translate(-955 -425)"/>
</clipPath>
</defs>
</svg>
